<?xml version="1.0" encoding="utf-8"?>
<!-- Generator: Adobe Illustrator 24.0.1, SVG Export Plug-In . SVG Version: 6.00 Build 0)  -->
<svg version="1.1" id="Layer_1" xmlns="http://www.w3.org/2000/svg" xmlns:xlink="http://www.w3.org/1999/xlink" x="0px" y="0px"
	 viewBox="0 0 1729 1440" style="enable-background:new 0 0 1729 1440;" xml:space="preserve">
<style type="text/css">
	.st0{fill:url(#SVGID_1_);}
	.st1{fill:url(#SVGID_2_);}
	.st2{fill:url(#SVGID_3_);}
	.st3{fill:url(#SVGID_4_);}
	.st4{fill:url(#SVGID_5_);}
	.st5{fill:url(#SVGID_6_);}
	.st6{fill:url(#SVGID_7_);}
	.st7{fill:url(#SVGID_8_);}
	.st8{fill:url(#SVGID_9_);}
	.st9{fill:url(#SVGID_10_);}
	.st10{fill:url(#SVGID_11_);}
	.st11{fill:url(#SVGID_12_);}
	.st12{fill:url(#SVGID_13_);}
	.st13{fill:url(#SVGID_14_);}
	.st14{fill:url(#SVGID_15_);}
	.st15{fill:url(#SVGID_16_);}
	.st16{fill:url(#SVGID_17_);}
	.st17{fill:url(#SVGID_18_);}
	.st18{fill:url(#SVGID_19_);}
	.st19{fill:url(#SVGID_20_);}
	.st20{fill:url(#SVGID_21_);}
	.st21{fill:url(#SVGID_22_);}
	.st22{fill:url(#SVGID_23_);}
	.st23{fill:url(#SVGID_24_);}
	.st24{fill:url(#SVGID_25_);}
	.st25{fill:url(#SVGID_26_);}
	.st26{fill:url(#SVGID_27_);}
	.st27{fill:url(#SVGID_28_);}
	.st28{fill:url(#SVGID_29_);}
</style>
<g>
	<g>
		<g>
			<linearGradient id="SVGID_1_" gradientUnits="userSpaceOnUse" x1="45.5621" y1="1028.9066" x2="1745.6191" y2="1028.9066">
				<stop  offset="5.618000e-03" style="stop-color:#FBC926"/>
				<stop  offset="0.2528" style="stop-color:#FFFBCC"/>
				<stop  offset="0.3045" style="stop-color:#F8F0BB"/>
				<stop  offset="0.4072" style="stop-color:#E7D28E"/>
				<stop  offset="0.55" style="stop-color:#CCA246"/>
				<stop  offset="0.5955" style="stop-color:#C3922E"/>
				<stop  offset="0.8708" style="stop-color:#EED688"/>
				<stop  offset="1" style="stop-color:#FFFBCC"/>
			</linearGradient>
			<path class="st0" d="M148.5,914.68h-23.53L22,1143.14h24.18l26.8-60.81H199.8l27.12,60.81h24.5L148.5,914.68z M81.81,1062.09
				l54.24-123.56l54.93,123.56H81.81z"/>
			<linearGradient id="SVGID_2_" gradientUnits="userSpaceOnUse" x1="45.5764" y1="1028.9066" x2="1745.5223" y2="1028.9066">
				<stop  offset="5.618000e-03" style="stop-color:#FBC926"/>
				<stop  offset="0.2528" style="stop-color:#FFFBCC"/>
				<stop  offset="0.3045" style="stop-color:#F8F0BB"/>
				<stop  offset="0.4072" style="stop-color:#E7D28E"/>
				<stop  offset="0.55" style="stop-color:#CCA246"/>
				<stop  offset="0.5955" style="stop-color:#C3922E"/>
				<stop  offset="0.8708" style="stop-color:#EED688"/>
				<stop  offset="1" style="stop-color:#FFFBCC"/>
			</linearGradient>
			<path class="st1" d="M430.52,1064.35c17.01-4.99,30.06-13.81,39.21-26.44c9.15-12.66,13.74-28.45,13.74-47.39
				c0-24.18-7.82-42.87-23.39-56.07c-15.57-13.17-37.63-19.77-66.16-19.77h-85.31v228.46h22.57v-73.87h62.75
				c3.7,0,9.04-0.22,16-0.65l49.33,74.52h26.15L430.52,1064.35z M393.93,1049h-62.75V934.95h62.75c21.78,0,38.57,4.81,50.3,14.39
				c11.77,9.58,17.65,23.53,17.65,41.83c0,18.73-5.88,33.08-17.65,42.98C432.5,1044.05,415.71,1049,393.93,1049z"/>
			<linearGradient id="SVGID_3_" gradientUnits="userSpaceOnUse" x1="45.5885" y1="1028.7451" x2="1745.5492" y2="1028.7451">
				<stop  offset="5.618000e-03" style="stop-color:#FBC926"/>
				<stop  offset="0.2528" style="stop-color:#FFFBCC"/>
				<stop  offset="0.3045" style="stop-color:#F8F0BB"/>
				<stop  offset="0.4072" style="stop-color:#E7D28E"/>
				<stop  offset="0.55" style="stop-color:#CCA246"/>
				<stop  offset="0.5955" style="stop-color:#C3922E"/>
				<stop  offset="0.8708" style="stop-color:#EED688"/>
				<stop  offset="1" style="stop-color:#FFFBCC"/>
			</linearGradient>
			<path class="st2" d="M532.16,914.35v20.59h75.48v208.19h22.57V934.95h75.48v-20.59H532.16z"/>
			<linearGradient id="SVGID_4_" gradientUnits="userSpaceOnUse" x1="45.6701" y1="1028.9066" x2="1745.4611" y2="1028.9066">
				<stop  offset="5.618000e-03" style="stop-color:#FBC926"/>
				<stop  offset="0.2528" style="stop-color:#FFFBCC"/>
				<stop  offset="0.3045" style="stop-color:#F8F0BB"/>
				<stop  offset="0.4072" style="stop-color:#E7D28E"/>
				<stop  offset="0.55" style="stop-color:#CCA246"/>
				<stop  offset="0.5955" style="stop-color:#C3922E"/>
				<stop  offset="0.8708" style="stop-color:#EED688"/>
				<stop  offset="1" style="stop-color:#FFFBCC"/>
			</linearGradient>
			<path class="st3" d="M764.85,914.68v20.27h152.94v-20.27H764.85z M787.38,1122.87v-85.96h116.67v-20.27h-139.2v126.5h157.17
				v-20.27H787.38z"/>
			<linearGradient id="SVGID_5_" gradientUnits="userSpaceOnUse" x1="45.6176" y1="1028.9066" x2="1745.514" y2="1028.9066">
				<stop  offset="5.618000e-03" style="stop-color:#FBC926"/>
				<stop  offset="0.2528" style="stop-color:#FFFBCC"/>
				<stop  offset="0.3045" style="stop-color:#F8F0BB"/>
				<stop  offset="0.4072" style="stop-color:#E7D28E"/>
				<stop  offset="0.55" style="stop-color:#CCA246"/>
				<stop  offset="0.5955" style="stop-color:#C3922E"/>
				<stop  offset="0.8708" style="stop-color:#EED688"/>
				<stop  offset="1" style="stop-color:#FFFBCC"/>
			</linearGradient>
			<path class="st4" d="M1019.43,1122.87V914.68h-22.57v228.46h123.2v-20.27H1019.43z"/>
			<linearGradient id="SVGID_6_" gradientUnits="userSpaceOnUse" x1="46.4373" y1="1028.9066" x2="1745.1544" y2="1028.9066">
				<stop  offset="5.618000e-03" style="stop-color:#FBC926"/>
				<stop  offset="0.2528" style="stop-color:#FFFBCC"/>
				<stop  offset="0.3045" style="stop-color:#F8F0BB"/>
				<stop  offset="0.4072" style="stop-color:#E7D28E"/>
				<stop  offset="0.55" style="stop-color:#CCA246"/>
				<stop  offset="0.5955" style="stop-color:#C3922E"/>
				<stop  offset="0.8708" style="stop-color:#EED688"/>
				<stop  offset="1" style="stop-color:#FFFBCC"/>
			</linearGradient>
			<path class="st5" d="M1184.14,914.68v228.46h22.53V914.68H1184.14z"/>
			<linearGradient id="SVGID_7_" gradientUnits="userSpaceOnUse" x1="45.7297" y1="1028.9066" x2="1745.5208" y2="1028.9066">
				<stop  offset="5.618000e-03" style="stop-color:#FBC926"/>
				<stop  offset="0.2528" style="stop-color:#FFFBCC"/>
				<stop  offset="0.3045" style="stop-color:#F8F0BB"/>
				<stop  offset="0.4072" style="stop-color:#E7D28E"/>
				<stop  offset="0.55" style="stop-color:#CCA246"/>
				<stop  offset="0.5955" style="stop-color:#C3922E"/>
				<stop  offset="0.8708" style="stop-color:#EED688"/>
				<stop  offset="1" style="stop-color:#FFFBCC"/>
			</linearGradient>
			<path class="st6" d="M1298.19,914.68v20.27h152.94v-20.27H1298.19z M1320.72,1122.87v-85.96h116.67v-20.27h-139.2v126.5h157.17
				v-20.27H1320.72z"/>
			<linearGradient id="SVGID_8_" gradientUnits="userSpaceOnUse" x1="45.6007" y1="1028.9066" x2="1745.5466" y2="1028.9066">
				<stop  offset="5.618000e-03" style="stop-color:#FBC926"/>
				<stop  offset="0.2528" style="stop-color:#FFFBCC"/>
				<stop  offset="0.3045" style="stop-color:#F8F0BB"/>
				<stop  offset="0.4072" style="stop-color:#E7D28E"/>
				<stop  offset="0.55" style="stop-color:#CCA246"/>
				<stop  offset="0.5955" style="stop-color:#C3922E"/>
				<stop  offset="0.8708" style="stop-color:#EED688"/>
				<stop  offset="1" style="stop-color:#FFFBCC"/>
			</linearGradient>
			<path class="st7" d="M1652.11,1064.35c17.01-4.99,30.06-13.81,39.21-26.44c9.15-12.66,13.74-28.45,13.74-47.39
				c0-24.18-7.82-42.87-23.39-56.07c-15.57-13.17-37.63-19.77-66.16-19.77h-85.31v228.46h22.57v-73.87h62.75
				c3.7,0,9.04-0.22,16-0.65l49.37,74.52H1707L1652.11,1064.35z M1615.52,1049h-62.75V934.95h62.75c21.78,0,38.57,4.81,50.3,14.39
				c11.77,9.58,17.65,23.53,17.65,41.83c0,18.73-5.88,33.08-17.65,42.98C1654.08,1044.05,1637.29,1049,1615.52,1049z"/>
		</g>
		<g>
			<g>
				<linearGradient id="SVGID_9_" gradientUnits="userSpaceOnUse" x1="864.5179" y1="18.3087" x2="864.5179" y2="813.4203">
					<stop  offset="5.618000e-03" style="stop-color:#FBC926"/>
					<stop  offset="0.2528" style="stop-color:#FFFBCC"/>
					<stop  offset="0.3045" style="stop-color:#F8F0BB"/>
					<stop  offset="0.4072" style="stop-color:#E7D28E"/>
					<stop  offset="0.55" style="stop-color:#CCA246"/>
					<stop  offset="0.5955" style="stop-color:#C3922E"/>
					<stop  offset="0.8708" style="stop-color:#EED688"/>
					<stop  offset="1" style="stop-color:#FFFBCC"/>
				</linearGradient>
				<path class="st8" d="M1170.97,737.52L975.66,232.88l-20.13,8.72c-53.6,23.32-120.47,43.63-154.3,49.98l5.2,13.81
					c9.15-2.37,18.26-3.23,26.3-2.4c14.35,1.44,24.65,8.14,28.23,18.33c2.8,8,1.08,16.97-4.81,25.33
					c18.91,2.58,30.85,7.53,31.39,7.75l20.92,8.86l-19.48,11.73c-14.82,8.93-30.49,17.76-46.42,26.3l47.82,126.93H777.91
					c-0.39,10.44-1.87,22.82-5.31,36.2h130.05l65.12,173.1h-90.19v36.74h359.09v-36.74H1170.97z M956.54,183.52
					c-1.22,1.72-2.65,3.44-4.23,5.13c-7.5,7.93-18.48,14.75-30.96,19.12c-0.93,0.36-1.9,0.65-2.83,0.97
					c22.92,3.41,37.63,11.88,38.28,12.27l18.44,10.83L956.54,183.52z M892.61,18.31h-44.52l-0.97,2.48l1.15,1.26
					c0.57,0.68,47,53.96,28.49,134c6.24-4.59,13.81-8.57,22.28-11.52c11.66-4.16,23.82-5.85,34.19-4.81c2.4,0.22,4.7,0.61,6.85,1.18
					L892.61,18.31z M657.69,737.52c-10.37,0-18.44-1.72-24.18-5.27c-3.66-2.26-6.17-5.06-7.5-8.43
					c2.26,17.69,6.06,34.58,11.27,50.44h86.71v-36.74H657.69z M586.98,696.41c-6.24,13.24-12.34,22.85-18.33,28.88
					c-8.18,8.14-18.37,12.23-30.6,12.23h-45.67v36.74h106.77C592.07,749.5,587.98,723.49,586.98,696.41z"/>
			</g>
			<linearGradient id="SVGID_10_" gradientUnits="userSpaceOnUse" x1="739.2887" y1="18.7663" x2="739.2887" y2="813.8829">
				<stop  offset="5.618000e-03" style="stop-color:#FBC926"/>
				<stop  offset="0.2528" style="stop-color:#FFFBCC"/>
				<stop  offset="0.3045" style="stop-color:#F8F0BB"/>
				<stop  offset="0.4072" style="stop-color:#E7D28E"/>
				<stop  offset="0.55" style="stop-color:#CCA246"/>
				<stop  offset="0.5955" style="stop-color:#C3922E"/>
				<stop  offset="0.8708" style="stop-color:#EED688"/>
				<stop  offset="1" style="stop-color:#FFFBCC"/>
			</linearGradient>
			<path class="st9" d="M776.05,297.11c-22.4,27.02-43.62,56.04-62.75,86.06c21.13-18.96,41.18-30.33,55.82-36.95
				c2.53-10.07,15.47-21.27,33.25-27.54c22.31-7.89,43.66-4.97,47.72,6.49c4.01,11.46-10.76,27.1-33.07,34.99
				c-22.31,7.89-43.71,4.97-47.72-6.49c-0.09-0.26-0.13-0.52-0.22-0.78c-18.04,8.58-43.75,24.23-68.98,51.68
				c-4.97,8.28-9.72,16.65-14.29,25.01c0,0-6.14,11.42-7.02,13.12c-4.75,9.02-9.19,18.04-13.42,27.02l7.84-9.59
				c31.51-50.42,66.41-77.3,98.61-90.9c4.53,2.44,10.11,3.97,16.65,4.44c9.76,0.74,20.7-0.91,31.59-4.75
				c8.5-3.05,16.3-7.1,22.66-11.94c24.49,1.44,40.35,8.11,40.35,8.11c-70.29,42.31-157,81.09-196.79,93.56l-29.33,31.29l-0.65-0.17
				c-14.12,32.68-24.88,64.8-32.25,96c61.7-151.95,184.46-125.85,184.46-125.85c-39.87,35.91-87.02,71.68-124.98,97.52
				c-1.26-0.31-2.57-0.52-3.92-0.61c-14.34-1.05-31.72,10.55-44.36,29.54c-0.39,0.57-0.78,1.22-1.18,1.83
				c-0.04,0.04-0.04,0.09-0.09,0.09l-15.64,24.93c-4.66,26.32-6.75,51.81-6.32,76.3c5.58-24.36,13.86-43.18,20.92-56.04
				c-4.05-9.59-0.39-26.32,10.02-41.96c13.07-19.7,31.9-30.24,42.01-23.49c10.11,6.71,7.71,28.15-5.4,47.85
				c-13.07,19.7-31.9,30.2-42.01,23.49c-0.22-0.17-0.44-0.35-0.65-0.52c-6.54,12.46-13.99,30.07-19.13,52.33l22.01-14.64
				c3.92-7.71,9.28-17.21,15.77-27.98c11.07-4.05,22.62-13.9,31.72-27.58c7.15-10.72,11.72-22.4,12.9-32.86
				c0.31-2.66,0.39-5.19,0.26-7.54c19.61-27.63,41.75-56.6,64.1-82.66c0,0,29.81,125.67-128.37,191.21l-20.39,11.72
				c-0.87,4.79-1.66,9.8-2.27,14.95c1.92,20.39,5.8,39.96,11.63,58.48h-13.9c-13.12-43.75-15.43-88.55-10.94-132.03l-13.86-20.74
				c-112.51-129.03-29.85-228.38-29.85-228.38c6.45,25.71,12.07,52.9,16.73,79.4c-5.01,10.59-6.36,25.62-3.01,42.05
				c2.61,12.85,7.58,23.97,13.86,31.94c2.92,25.4,4.53,47.11,4.62,62.1l12.85,22.31c1.44-10.81,3.27-21.48,5.45-32.07
				c-0.09-17.95-1-35.12-1.96-48.41c-10.68-1.74-21.61-17.21-25.75-37.69c-4.66-23.18,1.18-43.92,13.07-46.32
				c11.94-2.4,25.36,14.42,30.07,37.61c4.44,22.14-0.7,41.96-11.46,45.89c0.52,7.45,1.05,16.17,1.39,25.54
				c5.49-21.44,12.29-42.22,19.83-62.05l2.09-9.5c-12.24-39.87-29.2-133.3-33.95-215.22c0,0,77.65,50.02,60.22,160.27
				c2.09-4.23,4.23-8.37,6.32-12.42c5.49-10.5,11.29-20.96,17.34-31.37l2.79-12.55c-12.24-39.87-29.2-133.3-33.95-215.18
				c0,0,92.86,59.79,52.64,192.82c7.84-12.07,16.04-23.97,24.45-35.64c4.88-20.79,6.41-40.66,6.67-55.56
				c-10.37-3.14-19.17-19.96-20.52-40.83c-1.53-23.62,7.06-43.36,19.17-44.14c12.16-0.78,23.23,17.69,24.75,41.31
				c1.44,22.49-6.27,41.44-17.47,43.88c-0.26,12.16-1.26,27.5-4.18,43.92c8.67-11.63,17.6-22.96,26.71-33.99l5.71-25.8
				c-12.2-39.92-17.78-117.18-22.53-199.05c0,0,97.26,53.77,28.67,210.65l-0.13,0.31c15.08-17.43,30.59-33.9,46.36-49.2
				c-6.89-53.25,0-120.14,16.17-196.31c0,0,65.06,72.68,3.92,177.48c8.54-7.63,17.08-14.82,25.62-21.66
				c0.65-10.72,14.34-23.4,33.68-30.2c22.31-7.89,43.66-4.97,47.72,6.49c4.05,11.42-10.76,27.1-33.07,34.99
				c-16.73,5.88-32.94,5.75-41.7,0.44c-18.04,14.51-36.04,30.9-53.73,48.8c68.41-50.64,128.9-15.12,128.9-15.12
				c-56.21,24.4-124.23,44.49-154.91,49.76L776.05,297.11z"/>
		</g>
	</g>
	<g>
		<g>
			<linearGradient id="SVGID_11_" gradientUnits="userSpaceOnUse" x1="645.3154" y1="1184.0959" x2="645.3154" y2="1465.6445">
				<stop  offset="5.618000e-03" style="stop-color:#FBC926"/>
				<stop  offset="0.2528" style="stop-color:#FFFBCC"/>
				<stop  offset="0.3045" style="stop-color:#F8F0BB"/>
				<stop  offset="0.4072" style="stop-color:#E7D28E"/>
				<stop  offset="0.55" style="stop-color:#CCA246"/>
				<stop  offset="0.5955" style="stop-color:#C3922E"/>
				<stop  offset="0.8708" style="stop-color:#EED688"/>
				<stop  offset="1" style="stop-color:#FFFBCC"/>
			</linearGradient>
			<path class="st10" d="M644.72,1293.97l-0.41,0.97l-0.41,0.97l-0.71,2.08c-0.28,0.65-0.51,1.3-0.69,1.94
				c-0.18,0.65-0.37,1.3-0.55,1.94c-0.29,0.74-0.5,1.41-0.63,2.01c-0.13,0.6-0.3,1.27-0.49,2.01c-0.2,0.74-0.36,1.41-0.49,2.01
				c-0.13,0.6-0.24,1.23-0.33,1.87c-0.1,0.74-0.2,1.41-0.28,2.01c-0.08,0.6-0.13,1.23-0.12,1.87c-0.09,1.3,0.03,2.41,0.36,3.33
				c0.04,0.37,0.21,0.83,0.5,1.39c0.29,0.55,0.56,0.93,0.82,1.11c0.24,0.28,0.62,0.56,1.13,0.83l1.47,0.42h1.67
				c0.77-0.19,1.39-0.37,1.88-0.56c1.07-0.37,2.35-0.92,3.84-1.67c2.43-1.48,4.77-3.28,7.01-5.41c1.16-1.02,2.27-2.04,3.34-3.05
				c1.07-1.02,2.14-2.08,3.23-3.19l4.45-5l0.67-0.83c0.12-0.19,0.23-0.35,0.35-0.49c0.11-0.14,0.23-0.3,0.35-0.49
				c0.66-0.74,1.33-0.88,2-0.42c0.68,0.46,0.72,1.11,0.14,1.94l-0.16,0.14l-0.67,0.83l-4.06,4.17l-1.48,1.67
				c-1.18,1.11-2.3,2.2-3.37,3.26c-1.08,1.06-2.19,2.11-3.35,3.12l-3.46,2.92l-1.88,1.53c-0.3,0.19-0.61,0.42-0.93,0.69
				c-0.32,0.28-0.68,0.51-1.07,0.69c-1.23,0.83-2.59,1.67-4.1,2.5l-2.34,0.83c-0.58,0.19-1.01,0.28-1.29,0.28
				c-0.2,0.09-0.44,0.14-0.71,0.14h-0.56c-0.48,0.09-0.92,0.12-1.33,0.07c-0.41-0.05-0.84-0.12-1.29-0.21
				c-0.44-0.18-0.85-0.35-1.25-0.49c-0.4-0.14-0.82-0.3-1.25-0.49c-0.75-0.56-1.41-1.16-1.97-1.8c-0.23-0.37-0.45-0.72-0.69-1.04
				c-0.23-0.32-0.42-0.67-0.55-1.04c-0.36-0.74-0.62-1.53-0.78-2.36c-0.16-0.83-0.28-1.62-0.36-2.36c-0.08-0.74-0.09-1.5-0.03-2.29
				c0.06-0.79,0.1-1.55,0.11-2.29c0.13-1.57,0.32-3.1,0.57-4.58c0.25-1.48,0.58-2.96,0.97-4.44c0.2-0.74,0.39-1.48,0.59-2.22
				c0.2-0.74,0.44-1.48,0.73-2.22c0.04-0.28,0.19-0.7,0.45-1.25l-0.61,0.42c-0.71,0.46-1.39,0.97-2.02,1.53
				c-0.63,0.55-1.22,1.06-1.74,1.53c-1.27,1.11-2.49,2.22-3.66,3.33c-1.18,1.11-2.36,2.27-3.54,3.47l-3.42,3.61
				c-0.56,0.65-1.11,1.27-1.65,1.87c-0.55,0.6-1.1,1.23-1.65,1.87l-6.33,7.5l-3.05,3.89l-3.06,4.03l-5.83,7.91
				c-0.56,0.65-1.04,1.3-1.45,1.94c-0.42,0.65-0.85,1.3-1.31,1.94c-1.07,1.67-2.12,3.26-3.17,4.79s-2.1,3.08-3.15,4.65l-1.96,3.05
				c-0.23,0.28-0.49,0.51-0.79,0.69l-4.39,5.55l-3.96,4.44l-4.2,4.16l-2.22,1.94l-2.36,1.94c-0.82,0.56-1.64,1.11-2.46,1.67
				c-0.82,0.56-1.68,1.06-2.57,1.53c-0.5,0.28-0.96,0.53-1.36,0.76c-0.4,0.23-0.85,0.44-1.34,0.63l-2.77,0.97l-2.99,0.55
				c-0.46,0-0.93,0.02-1.4,0.07c-0.47,0.05-0.93,0.02-1.38-0.07c-0.56,0-0.79-0.28-0.72-0.83c0.08-0.56,0.4-0.83,0.95-0.83
				c1.76,0,3.46-0.28,5.11-0.83c0.49-0.19,0.93-0.35,1.32-0.49c0.39-0.14,0.78-0.3,1.18-0.49c0.9-0.46,1.7-0.93,2.42-1.39
				c1.32-0.83,2.77-1.94,4.36-3.33c1.27-1.11,2.57-2.45,3.9-4.03c1.41-1.48,2.58-2.92,3.52-4.3c0.57-0.74,1.11-1.51,1.64-2.29
				c0.53-0.79,1.07-1.55,1.64-2.29c0.57-0.74,1.09-1.5,1.57-2.29c0.48-0.79,0.96-1.6,1.45-2.43l2.9-4.86
				c0.96-1.57,1.88-3.17,2.76-4.79c0.87-1.62,1.75-3.26,2.64-4.93l5.27-9.86c0.49-0.83,0.93-1.67,1.32-2.5
				c0.4-0.83,0.8-1.71,1.2-2.64c0.49-0.83,0.93-1.67,1.32-2.5c0.39-0.83,0.79-1.67,1.18-2.5c0.88-1.67,1.72-3.33,2.51-5
				c0.79-1.67,1.59-3.38,2.39-5.14l1.2-2.64c-0.44-0.19-0.84-0.44-1.21-0.76c-0.37-0.32-0.77-0.62-1.19-0.9
				c-1.95-1.3-3.74-2.73-5.37-4.3c-3.37-3.05-6.15-6.62-8.35-10.69c-0.6-1.02-1.1-2.03-1.51-3.05c-0.41-1.02-0.82-2.08-1.22-3.19
				c-0.73-2.04-1.29-4.3-1.68-6.8c-0.35-2.13-0.48-4.49-0.39-7.08c0-1.3,0.05-2.52,0.17-3.68c0.12-1.16,0.31-2.38,0.59-3.68
				c0.95-4.81,2.71-9.44,5.28-13.88c1.16-2.31,2.52-4.44,4.09-6.39c1.57-1.94,3.27-3.84,5.1-5.69c3.86-3.79,7.91-6.89,12.14-9.3
				c2.13-1.3,4.32-2.45,6.6-3.47c2.27-1.02,4.57-1.9,6.9-2.64c4.85-1.57,9.61-2.54,14.29-2.91c1.21-0.09,2.4-0.16,3.57-0.21
				c1.16-0.05,2.34-0.02,3.53,0.07c2.31,0,4.65,0.14,7.02,0.42c2.37,0.28,4.68,0.62,6.93,1.04c2.25,0.42,4.51,0.86,6.76,1.32
				c1.16,0.28,2.28,0.56,3.35,0.83c1.07,0.28,2.14,0.6,3.2,0.97c1.06,0.37,2.12,0.72,3.19,1.04c1.06,0.33,2.12,0.72,3.17,1.18
				c4.13,1.57,8.14,3.15,12.04,4.72c3.9,1.57,7.95,2.87,12.16,3.89c0.99,0.19,2.03,0.35,3.12,0.49c1.09,0.14,2.18,0.3,3.26,0.49
				c1,0.09,2.06,0.14,3.17,0.14c1.11,0,2.22,0,3.33,0c2.23-0.09,4.49-0.37,6.78-0.83c2.38-0.46,4.63-1.02,6.76-1.67
				c0.87-0.28,1.43,0,1.69,0.83c0.17,0.74-0.18,1.3-1.07,1.67c-2.27,1.02-4.61,1.85-7.02,2.5c-1.15,0.28-2.32,0.56-3.52,0.83
				c-1.2,0.28-2.41,0.51-3.64,0.7c-2.47,0.46-4.92,0.74-7.34,0.83c-1.23,0.19-2.44,0.26-3.64,0.21c-1.2-0.05-2.39-0.12-3.58-0.21
				c-4.96-0.28-9.61-1.11-13.95-2.5c-1.06-0.37-2.14-0.72-3.25-1.04c-1.11-0.32-2.15-0.71-3.1-1.18l-6.15-2.64
				c-0.95-0.46-1.93-0.95-2.92-1.46c-0.99-0.51-1.96-1.04-2.9-1.6l-5.68-3.05c-0.95-0.46-1.93-0.92-2.93-1.39
				c-1-0.46-1.98-0.92-2.93-1.39c-0.97-0.37-1.98-0.72-3.05-1.04c-1.07-0.32-2.09-0.58-3.09-0.76c-2.14-0.56-4.37-0.83-6.69-0.83
				c-1.1-0.09-2.2-0.12-3.32-0.07c-1.12,0.05-2.29,0.12-3.5,0.21c-1.14,0.19-2.27,0.35-3.4,0.49c-1.13,0.14-2.26,0.3-3.4,0.49
				c-1.15,0.28-2.28,0.56-3.38,0.83c-1.1,0.28-2.24,0.6-3.4,0.97c-4.66,1.57-8.97,3.56-12.92,5.97c-4.16,2.59-7.91,5.55-11.24,8.89
				c-1.62,1.67-3.17,3.47-4.65,5.41c-1.49,2.04-2.74,4.03-3.75,5.97c-0.61,1.02-1.13,2.08-1.56,3.19c-0.43,1.11-0.82,2.18-1.14,3.19
				c-0.34,1.11-0.66,2.22-0.95,3.33c-0.29,1.11-0.52,2.22-0.68,3.33c-0.49,2.13-0.65,4.3-0.5,6.52c-0.01,2.04,0.2,4.17,0.63,6.39
				c0.23,1.02,0.5,2.01,0.83,2.98c0.33,0.97,0.65,1.97,0.97,2.99c0.41,1.02,0.86,1.97,1.33,2.85c0.48,0.88,0.98,1.74,1.51,2.57
				c2.28,3.52,5.01,6.53,8.17,9.02c1.51,1.11,3.2,2.27,5.07,3.47l1.55,0.83l5.49-11.38l2.39-5.14l2.53-5.14
				c0.79-1.67,1.6-3.35,2.45-5.07c0.84-1.71,1.7-3.4,2.59-5.07l2.53-5.14l2.65-5c0.97-1.67,1.95-3.35,2.93-5.07
				c0.98-1.71,1.95-3.35,2.91-4.93l3.2-5l3.58-4.72c1.44-1.67,2.89-3.15,4.37-4.44c0.51-0.37,0.98-0.72,1.4-1.04
				c0.41-0.32,0.91-0.58,1.5-0.76c0.51-0.37,1.06-0.6,1.62-0.69c0.37,0,0.65-0.05,0.85-0.14h0.56c0.09,0,0.16,0.02,0.2,0.07
				c0.04,0.05,0.11,0.07,0.2,0.07c0.81,0.19,1.06,0.65,0.78,1.39c-0.16,0.46-0.57,0.79-1.25,0.97h-0.14c-0.09,0-0.19,0.05-0.3,0.14
				c-0.19,0-0.33,0.05-0.44,0.14c-0.4,0.19-0.7,0.37-0.91,0.56l-0.93,0.69c-0.13,0.28-0.41,0.6-0.83,0.97l-1.54,2.08l-1.56,2.22
				l-2.77,4.86l-1.16,2.36c-0.25,0.46-0.47,0.88-0.66,1.25c-0.19,0.37-0.41,0.79-0.66,1.25l-2.37,5c-0.49,0.83-0.91,1.67-1.25,2.5
				c-0.35,0.83-0.73,1.71-1.13,2.64l-2.37,5l-2.39,5.14c-0.79,1.67-1.58,3.36-2.38,5.07c-0.8,1.71-1.55,3.45-2.26,5.21l-4.78,10.27
				c-1.5,3.42-3.07,6.83-4.7,10.2c-1.63,3.38-3.29,6.78-4.97,10.2l-5.17,10.14l-2.43,4.44l3.9-5l6.49-7.64
				c0.55-0.65,1.1-1.27,1.65-1.87c0.55-0.6,1.1-1.23,1.65-1.87l3.44-3.75c1.19-1.2,2.37-2.38,3.55-3.54
				c1.18-1.16,2.36-2.34,3.55-3.54l3.92-3.19l2.02-1.53l1.23-0.83l0.46-0.28l0.32-0.28h0.14c1.07-1.02,2.28-1.39,3.63-1.11
				c0.89,0.28,1.48,0.81,1.79,1.6C645.04,1292.19,645.04,1293.04,644.72,1293.97z"/>
			<linearGradient id="SVGID_12_" gradientUnits="userSpaceOnUse" x1="702.9576" y1="1184.0959" x2="702.9576" y2="1465.6445">
				<stop  offset="5.618000e-03" style="stop-color:#FBC926"/>
				<stop  offset="0.2528" style="stop-color:#FFFBCC"/>
				<stop  offset="0.3045" style="stop-color:#F8F0BB"/>
				<stop  offset="0.4072" style="stop-color:#E7D28E"/>
				<stop  offset="0.55" style="stop-color:#CCA246"/>
				<stop  offset="0.5955" style="stop-color:#C3922E"/>
				<stop  offset="0.8708" style="stop-color:#EED688"/>
				<stop  offset="1" style="stop-color:#FFFBCC"/>
			</linearGradient>
			<path class="st11" d="M670.5,1300.21l1.34-1.67l1.21-1.67l2.67-3.19l2.85-3.47c-0.99-0.83-1.83-1.8-2.51-2.91
				c-0.86-1.11-1.52-2.36-1.97-3.75c-0.55-1.39-0.86-2.78-0.94-4.17c-0.19-0.65-0.22-1.39-0.1-2.22c0.03-0.18,0.03-0.37,0.01-0.55
				c-0.02-0.19-0.02-0.37,0.01-0.56l0.31-2.22c0.08-0.56,0.18-0.92,0.3-1.11c0.08-0.55,0.27-1.3,0.59-2.22
				c0.5-1.57,1.12-3.01,1.85-4.3c0.47-0.74,0.94-1.41,1.39-2.01c0.45-0.6,0.96-1.23,1.51-1.87l1.76-1.67l0.95-0.83l1.07-0.69
				c1.62-1.02,3.2-1.71,4.74-2.08c0.48-0.09,0.9-0.16,1.28-0.21c0.38-0.05,0.8-0.07,1.26-0.07h0.69l0.12,0.14h0.42
				c0.18,0,0.36,0.02,0.55,0.07c0.18,0.05,0.36,0.07,0.55,0.07l2.14,0.56c0.61,0.28,1.24,0.69,1.91,1.25
				c0.57,0.55,1.03,1.25,1.37,2.08c0.26,0.74,0.34,1.53,0.22,2.36c0.03,0.46-0.01,0.86-0.1,1.18c-0.09,0.32-0.21,0.67-0.35,1.04
				c-0.12,0.83-0.35,1.53-0.71,2.08c-0.69,1.57-1.33,2.87-1.93,3.89l-2.31,3.61l-2.27,3.33l-5.1,6.66l-2.69,3.33l-0.49,0.56
				c0.66,0.55,1.16,0.93,1.51,1.11c1.93,1.39,4.07,2.31,6.41,2.78c0.63,0.09,1.23,0.16,1.78,0.21c0.55,0.05,1.15,0.07,1.8,0.07
				c1.29,0,2.52-0.14,3.67-0.42c2.68-0.65,5.01-1.76,6.99-3.33c0.92-0.65,1.92-1.48,2.99-2.5l0.83-0.97l2.49-3.89
				c0.59-0.92,1.37-1.55,2.35-1.87c0.97-0.32,1.89-0.25,2.75,0.21c0.77,0.46,1.25,1.11,1.46,1.94c0.21,0.83,0.11,1.67-0.28,2.5
				c-1.38,2.59-2.78,5.12-4.19,7.57c-1.41,2.45-2.8,4.93-4.17,7.43c-1.36,2.41-2.74,4.86-4.16,7.36c-1.42,2.5-2.8,4.95-4.16,7.36
				c-0.63,1.2-1.29,2.41-1.97,3.61c-0.68,1.2-1.34,2.45-1.98,3.75c-0.62,1.11-1.25,2.31-1.9,3.61l-1.78,3.75
				c-0.54,1.2-1.03,2.41-1.48,3.61c-0.45,1.2-0.84,2.36-1.18,3.47c-0.18,0.65-0.34,1.25-0.46,1.81c-0.13,0.55-0.22,1.06-0.28,1.53
				l0.1,1.25c-0.04,0.28,0.01,0.6,0.14,0.97c0.15,0.28,0.35,0.51,0.6,0.69c0.5,0.37,0.89,0.6,1.15,0.69c0.18,0,0.32,0.02,0.41,0.07
				c0.08,0.05,0.22,0.07,0.41,0.07h0.42c0.08,0.09,0.21,0.14,0.4,0.14c0.74,0,1.3-0.05,1.69-0.14l1.72-0.42l1.76-0.69l3.49-2.08
				c2.17-1.57,4.32-3.42,6.47-5.55l1.46-1.53c0.22-0.28,0.44-0.53,0.66-0.76c0.22-0.23,0.44-0.49,0.66-0.76
				c0.54-0.56,1.03-1.11,1.48-1.67c0.45-0.56,0.9-1.11,1.34-1.67c3.55-4.16,6.96-8.7,10.24-13.61c0.91-1.2,1.72-2.38,2.44-3.54
				c0.72-1.16,1.48-2.34,2.3-3.54l1.09-1.8l1.23-1.81l2.03-3.61c0.59-0.92,1.28-1.2,2.06-0.83c0.44,0.19,0.7,0.46,0.78,0.83
				c0.09,0.37,0.01,0.74-0.23,1.11l-1.25,1.94l-1.09,1.8l-2.45,3.61c-0.82,1.2-1.61,2.38-2.37,3.54c-0.77,1.16-1.6,2.34-2.51,3.54
				c-1.42,2.22-3.09,4.54-5,6.94c-0.91,1.2-1.81,2.36-2.71,3.47c-0.9,1.11-1.84,2.22-2.83,3.33l-2.83,3.33l-3.09,3.19
				c-1.07,1.02-2.14,2.01-3.2,2.98c-1.06,0.97-2.17,1.97-3.33,2.99c-0.95,0.83-2.18,1.71-3.7,2.64c-0.71,0.46-1.41,0.83-2.1,1.11
				c-0.52,0.37-1.26,0.69-2.22,0.97c-0.58,0.18-1.35,0.37-2.3,0.55c-0.37,0-0.61,0.05-0.71,0.14h-1.8c-0.83,0-1.69-0.14-2.58-0.42
				c-0.44-0.19-0.85-0.39-1.23-0.62c-0.38-0.23-0.74-0.53-1.05-0.9c-0.41-0.37-0.73-0.74-0.95-1.11c-0.23-0.37-0.44-0.79-0.66-1.25
				c-0.12-0.46-0.22-0.9-0.3-1.32c-0.08-0.42-0.18-0.85-0.3-1.32c-0.14-1.67-0.06-3.24,0.25-4.72c0.22-1.57,0.57-3.05,1.04-4.44
				c0.29-0.74,0.55-1.46,0.79-2.15c0.24-0.69,0.5-1.41,0.79-2.15c1.12-2.68,2.3-5.32,3.54-7.91c1.24-2.59,2.55-5.18,3.94-7.77
				c1.37-2.5,2.74-5,4.11-7.5c1.37-2.5,2.78-4.95,4.23-7.36c0.47-0.74,0.93-1.53,1.37-2.36c0.44-0.83,0.94-1.62,1.51-2.36
				c-2.34,1.48-4.64,2.41-6.92,2.78c-2.79,0.74-5.54,0.88-8.25,0.42c-2.71-0.46-5.18-1.34-7.4-2.64c-0.7-0.28-1.26-0.6-1.67-0.97
				c-0.54,0.56-1.02,1.14-1.42,1.74c-0.41,0.6-0.84,1.18-1.29,1.74c-0.45,0.55-0.87,1.09-1.27,1.6c-0.4,0.51-0.77,1.04-1.13,1.6
				c-0.33,0.37-0.73,0.93-1.21,1.67l-1.09,1.8c-0.49,0.83-1.12,1.07-1.9,0.7c-0.34-0.19-0.56-0.46-0.65-0.83
				c-0.09-0.37-0.01-0.74,0.23-1.11L670.5,1300.21z M681.08,1287.16l2.53-3.19l2.55-3.33l2.41-3.33l2.27-3.33l2.01-3.47
				c0.64-1.3,1.18-2.45,1.6-3.47c0.47-1.39,0.73-2.54,0.77-3.47c0.08-0.56,0-0.97-0.24-1.25l-0.7-0.97l-1.33-0.42
				c-0.27-0.09-0.77-0.14-1.51-0.14h-1.11l-0.16,0.14h-0.28c-0.2,0.09-0.42,0.16-0.65,0.21c-0.24,0.05-0.46,0.16-0.67,0.35
				c-1.11,0.65-1.95,1.34-2.51,2.08c-0.29,0.09-0.5,0.28-0.63,0.55l-0.49,0.56l-1.03,1.39c-0.69,0.93-1.31,1.9-1.87,2.92
				c-0.56,1.02-1.1,2.04-1.61,3.05l-0.65,1.67c-0.03,0.19-0.07,0.33-0.13,0.42c-0.06,0.09-0.1,0.23-0.13,0.42l-0.2,0.42l-0.06,0.42
				c-0.11,0.09-0.17,0.23-0.2,0.42l-0.06,0.42c-0.03,0.19-0.07,0.33-0.13,0.42c-0.06,0.09-0.1,0.23-0.13,0.42l-0.21,1.53
				c-0.15,2.41,0.15,4.53,0.91,6.39c0.12,0.46,0.32,0.88,0.59,1.25c0.27,0.37,0.51,0.79,0.73,1.25L681.08,1287.16z"/>
			<linearGradient id="SVGID_13_" gradientUnits="userSpaceOnUse" x1="758.3625" y1="1184.0959" x2="758.3625" y2="1465.6445">
				<stop  offset="5.618000e-03" style="stop-color:#FBC926"/>
				<stop  offset="0.2528" style="stop-color:#FFFBCC"/>
				<stop  offset="0.3045" style="stop-color:#F8F0BB"/>
				<stop  offset="0.4072" style="stop-color:#E7D28E"/>
				<stop  offset="0.55" style="stop-color:#CCA246"/>
				<stop  offset="0.5955" style="stop-color:#C3922E"/>
				<stop  offset="0.8708" style="stop-color:#EED688"/>
				<stop  offset="1" style="stop-color:#FFFBCC"/>
			</linearGradient>
			<path class="st12" d="M784.41,1280.92l-4.5,7.36c-0.82,1.2-1.59,2.41-2.31,3.61c-0.73,1.2-1.46,2.45-2.19,3.75
				c-1.45,2.41-2.9,4.84-4.36,7.29c-1.46,2.45-2.87,4.93-4.24,7.43c-1.46,2.5-2.79,5-3.97,7.5c-0.65,1.3-1.28,2.55-1.91,3.75
				c-0.63,1.2-1.23,2.45-1.78,3.75c-0.28,0.65-0.55,1.27-0.82,1.87c-0.27,0.6-0.54,1.23-0.82,1.87l-1.5,3.75
				c-0.28,0.65-0.5,1.25-0.67,1.8c-0.17,0.56-0.35,1.16-0.53,1.81l-0.53,1.8l-0.23,1.67l0.06,1.53c0.16,0.19,0.25,0.37,0.27,0.56
				c0.02,0.19,0.11,0.37,0.27,0.56c0.16,0.19,0.32,0.33,0.5,0.42c0.17,0.09,0.38,0.23,0.64,0.42c0.18,0,0.3,0.02,0.34,0.07
				c0.04,0.05,0.15,0.07,0.34,0.07c0.09,0,0.16,0.02,0.2,0.07c0.04,0.05,0.1,0.07,0.2,0.07h1.25l0.73-0.28
				c0.38-0.09,0.97-0.32,1.76-0.69c1.11-0.65,2.24-1.48,3.41-2.5c1.13-0.83,2.19-1.76,3.17-2.78c0.53-0.46,1.04-0.97,1.53-1.53
				c0.49-0.56,1-1.06,1.53-1.53l5.91-6.52c1.88-2.22,3.73-4.46,5.53-6.73c1.8-2.27,3.56-4.56,5.27-6.87l5.16-7.08l5.02-7.08
				c0.47-0.74,1-0.88,1.59-0.42c0.69,0.37,0.75,0.88,0.2,1.53c-0.82,1.2-1.63,2.38-2.44,3.54c-0.81,1.16-1.67,2.34-2.58,3.54
				c-0.91,1.2-1.79,2.39-2.65,3.54c-0.86,1.16-1.74,2.34-2.65,3.54c-0.91,1.2-1.79,2.38-2.65,3.54c-0.86,1.16-1.73,2.29-2.63,3.4
				l-5.54,6.8c-1.9,2.31-3.85,4.53-5.86,6.66c-2.01,2.13-4.22,4.17-6.62,6.11c-0.33,0.37-0.9,0.83-1.72,1.39l-0.93,0.69l-1.07,0.69
				c-0.71,0.46-1.41,0.83-2.1,1.11l-1.17,0.42c-0.58,0.18-1.01,0.28-1.29,0.28h-1.25c-0.19,0-0.39-0.02-0.62-0.07
				c-0.22-0.05-0.43-0.07-0.61-0.07c-0.45-0.09-0.85-0.23-1.19-0.42c-0.34-0.19-0.74-0.37-1.17-0.56c-0.16-0.19-0.3-0.35-0.42-0.49
				c-0.12-0.14-0.26-0.3-0.42-0.49c-0.16-0.18-0.3-0.35-0.42-0.49c-0.12-0.14-0.26-0.3-0.42-0.49c-0.37-0.65-0.63-1.43-0.78-2.36
				c-0.27-0.74-0.41-1.5-0.44-2.29c-0.03-0.79-0.04-1.55-0.03-2.29c0.01-0.74,0.07-1.5,0.18-2.29c0.11-0.79,0.22-1.55,0.32-2.29
				c0.23-1.02,0.52-2.04,0.85-3.05c0.33-1.02,0.65-2.04,0.98-3.05c-2.4,3.24-4.75,6.11-7.04,8.61l-3.94,4.3
				c-0.41,0.28-0.78,0.6-1.11,0.97c-0.21,0.19-0.4,0.35-0.55,0.49c-0.16,0.14-0.34,0.3-0.55,0.49c-0.33,0.37-0.68,0.69-1.04,0.97
				c-0.36,0.28-0.75,0.56-1.16,0.83c-0.74,0.65-1.56,1.25-2.47,1.81l-2.44,1.53c-0.9,0.46-1.81,0.88-2.74,1.25
				c-0.93,0.37-1.92,0.65-2.96,0.83c-0.2,0.09-0.48,0.14-0.85,0.14l-0.02,0.14h-0.83c-0.28,0-0.58,0-0.9,0
				c-0.32,0-0.62-0.05-0.88-0.14c-0.7-0.28-1.26-0.6-1.67-0.97c-0.66-0.56-1.11-1.02-1.33-1.39c-0.6-1.02-1.01-2.04-1.24-3.05
				l-0.34-1.53l-0.06-1.53c-0.04-1.02-0.02-2.01,0.07-2.98c0.09-0.97,0.26-1.97,0.49-2.98c0.06-0.46,0.15-0.92,0.26-1.39
				c0.11-0.46,0.25-0.92,0.4-1.39l0.81-2.78c0.63-1.85,1.3-3.66,2.01-5.41c0.71-1.76,1.43-3.56,2.15-5.41
				c0.8-1.76,1.62-3.47,2.46-5.14c0.84-1.67,1.75-3.38,2.74-5.14c0.25-0.46,0.49-0.88,0.73-1.25c0.24-0.37,0.48-0.79,0.73-1.25
				l0.59-1.25l0.73-1.25l3.04-4.86c0.58-0.83,1.14-1.67,1.67-2.5c0.53-0.83,1.08-1.62,1.65-2.36c0.58-0.83,1.15-1.64,1.73-2.43
				c0.57-0.79,1.14-1.55,1.71-2.29l3.86-4.72c0.75-0.74,1.5-1.46,2.25-2.15c0.74-0.69,1.53-1.36,2.37-2.01l2.73-1.67
				c0.5-0.28,0.98-0.56,1.44-0.83c0.46-0.28,0.93-0.51,1.42-0.69c0.49-0.18,1.02-0.35,1.6-0.49c0.57-0.14,1.15-0.3,1.73-0.49
				c1.23-0.18,2.33-0.14,3.31,0.14c0.71,0.19,1.2,0.37,1.45,0.55c0.09,0,0.14,0.02,0.13,0.07c-0.01,0.05,0.04,0.07,0.13,0.07h0.14
				l0.12,0.14c0.08,0.09,0.17,0.14,0.26,0.14l0.62,0.56c0.42,0.28,0.74,0.65,0.95,1.11c0.16,0.19,0.29,0.4,0.4,0.63
				c0.11,0.23,0.19,0.49,0.24,0.76c0.44,0.83,0.73,1.71,0.88,2.64c0.23,1.02,0.33,1.94,0.3,2.78c0.12,0.46,0.17,0.9,0.16,1.32
				c-0.01,0.42,0,0.86,0.02,1.32l-0.11,2.78c-0.14,1.02-0.28,1.97-0.4,2.85c-0.12,0.88-0.3,1.78-0.52,2.71l-0.06,0.42
				c0.26-0.56,0.57-1.09,0.92-1.6c0.35-0.51,0.7-1.04,1.06-1.6l4.64-7.36c0.46-0.65,0.89-1.25,1.29-1.8
				c0.4-0.56,0.79-1.16,1.16-1.81l1.36-1.8c0.38-0.74,0.79-1.34,1.23-1.8c0.59-0.92,1.39-1.5,2.4-1.74s1.93-0.07,2.78,0.49
				c0.67,0.46,1.11,1.13,1.31,2.01C785.18,1279.23,784.99,1280.08,784.41,1280.92z M760.37,1304.8c0.7-1.67,1.32-3.33,1.88-5
				c0.56-1.67,1.05-3.38,1.48-5.14c0.3-0.83,0.52-1.69,0.64-2.57c0.12-0.88,0.24-1.74,0.36-2.57c0.23-1.67,0.33-3.33,0.29-5
				l-0.34-2.5c-0.13-0.37-0.25-0.72-0.34-1.04c-0.09-0.32-0.21-0.67-0.34-1.04l-0.56-0.97c-0.17-0.09-0.28-0.19-0.31-0.28
				c-0.03-0.09-0.13-0.23-0.29-0.42c-0.09,0-0.16-0.02-0.2-0.07c-0.04-0.05-0.11-0.07-0.2-0.07l-0.12-0.14h-0.14l-0.12-0.14
				c-0.19,0-0.34-0.02-0.48-0.07c-0.13-0.05-0.29-0.07-0.48-0.07c-1.27-0.18-2.59,0.28-3.94,1.39c-1.04,0.83-2.23,2.04-3.56,3.61
				c-0.56,0.65-1.11,1.3-1.66,1.94c-0.56,0.65-1.12,1.34-1.68,2.08l-3.1,4.3c-0.57,0.74-1.09,1.51-1.57,2.29
				c-0.48,0.79-0.96,1.55-1.43,2.29c-0.92,1.3-1.88,2.87-2.88,4.72l-2.61,4.72l-0.73,1.25l-0.59,1.25l-1.3,2.36
				c-0.88,1.67-1.72,3.31-2.5,4.93c-0.78,1.62-1.57,3.26-2.36,4.93c-1.68,3.42-3.07,6.66-4.14,9.72c-0.25,0.46-0.42,0.88-0.52,1.25
				c-0.1,0.37-0.23,0.79-0.38,1.25l-0.77,2.5l-1.5,4.72l-0.16,1.11c-0.03,0.19-0.07,0.35-0.14,0.49c-0.06,0.14-0.11,0.3-0.14,0.49
				c-0.08,0.56-0.08,1.2,0,1.94c-0.01,0.09,0.05,0.33,0.18,0.69c-0.01,0.09,0.1,0.28,0.34,0.56c0.16,0.19,0.38,0.28,0.66,0.28
				c0.09,0,0.13,0.05,0.12,0.14h0.83c0.46,0,0.88,0,1.25,0c0.37,0,0.8-0.09,1.29-0.28c0.86-0.18,1.64-0.46,2.34-0.83
				c0.49-0.19,0.91-0.39,1.27-0.63c0.36-0.23,0.73-0.44,1.13-0.63c0.4-0.19,0.77-0.42,1.14-0.69c0.36-0.28,0.75-0.56,1.16-0.83
				l2.2-1.8l2.06-1.81c0.66-0.74,1.31-1.43,1.96-2.08c0.65-0.65,1.25-1.34,1.82-2.08c1.21-1.39,2.37-2.85,3.46-4.37
				c1.09-1.53,2.17-3.08,3.22-4.65l2.89-4.72c0.25-0.46,0.47-0.88,0.66-1.25c0.19-0.37,0.41-0.79,0.66-1.25
				c0.24-0.37,0.47-0.74,0.71-1.11c0.24-0.37,0.48-0.79,0.73-1.25c0.88-1.67,1.74-3.31,2.57-4.93
				C758.91,1308.11,759.67,1306.46,760.37,1304.8z"/>
			<linearGradient id="SVGID_14_" gradientUnits="userSpaceOnUse" x1="819.8" y1="1184.0959" x2="819.8" y2="1465.6445">
				<stop  offset="5.618000e-03" style="stop-color:#FBC926"/>
				<stop  offset="0.2528" style="stop-color:#FFFBCC"/>
				<stop  offset="0.3045" style="stop-color:#F8F0BB"/>
				<stop  offset="0.4072" style="stop-color:#E7D28E"/>
				<stop  offset="0.55" style="stop-color:#CCA246"/>
				<stop  offset="0.5955" style="stop-color:#C3922E"/>
				<stop  offset="0.8708" style="stop-color:#EED688"/>
				<stop  offset="1" style="stop-color:#FFFBCC"/>
			</linearGradient>
			<path class="st13" d="M776.19,1344.36l3.57-8.61c0.66-1.39,1.29-2.78,1.9-4.16c0.61-1.39,1.25-2.78,1.9-4.16
				c1.24-2.87,2.51-5.69,3.83-8.47c1.32-2.78,2.67-5.51,4.07-8.19c1.41-2.78,2.84-5.55,4.29-8.33c1.45-2.78,2.97-5.51,4.55-8.19
				c1.58-2.68,3.18-5.34,4.8-7.98c1.62-2.64,3.36-5.3,5.22-7.98c0.59-0.92,1.39-1.5,2.4-1.74c1-0.23,1.94-0.12,2.8,0.35
				c0.77,0.46,1.23,1.16,1.37,2.08c0.15,0.93-0.08,1.85-0.67,2.78l-0.16,0.14c-3.74,4.91-7.22,9.9-10.44,14.99
				c-1.66,2.59-3.28,5.21-4.85,7.84c-1.57,2.64-3.1,5.3-4.59,7.98c-1,1.85-1.99,3.66-2.98,5.41c-0.99,1.76-1.98,3.56-2.98,5.41
				l4.19-6.11c1.5-2.13,2.97-4.19,4.41-6.18c1.44-1.99,2.94-3.96,4.51-5.9c3.06-3.98,6.24-7.87,9.55-11.66
				c0.87-0.92,1.72-1.85,2.54-2.78c0.82-0.92,1.67-1.85,2.54-2.78l5.32-5.28c0.96-0.92,1.92-1.78,2.86-2.57
				c0.94-0.79,1.97-1.55,3.1-2.29c1.03-0.74,2.19-1.43,3.49-2.08c0.41-0.28,1.01-0.6,1.8-0.97l2.02-0.56l1.01-0.28h0.83
				c0.09,0,0.14-0.02,0.15-0.07c0.01-0.05,0.06-0.07,0.15-0.07c0.56,0,0.97,0.05,1.23,0.14c0.28,0,0.68,0.09,1.21,0.28
				c0.16,0.19,0.37,0.32,0.64,0.42c0.26,0.09,0.48,0.23,0.64,0.42l0.82,1.11c0.21,0.46,0.36,0.88,0.45,1.25
				c0.09,0.37,0.19,0.79,0.31,1.25c0.08,0.74,0.07,1.46-0.03,2.15c-0.1,0.69-0.2,1.41-0.3,2.15c-0.18,0.65-0.37,1.27-0.54,1.87
				c-0.18,0.6-0.4,1.23-0.68,1.87c-0.47,1.39-0.97,2.59-1.48,3.61l-1.58,3.33c-1.05,2.22-2.24,4.44-3.57,6.66
				c-1.15,2.22-2.31,4.4-3.49,6.53c-1.18,2.13-2.38,4.26-3.6,6.39c-1.23,2.13-2.43,4.26-3.61,6.39c-1.18,2.13-2.29,4.26-3.33,6.39
				c-0.62,1.11-1.13,2.13-1.54,3.05l-1.42,3.19c-0.25,0.46-0.43,0.95-0.55,1.46c-0.12,0.51-0.26,1-0.41,1.46
				c-0.26,0.56-0.43,1.07-0.49,1.53c-0.07,0.46-0.13,0.93-0.2,1.39c-0.07,0.46-0.1,0.86-0.1,1.18c0,0.33-0.02,0.63-0.06,0.9
				l0.18,0.69c-0.04,0.28,0.06,0.56,0.3,0.83l0.74,0.69c0.34,0.19,0.56,0.28,0.66,0.28c0.16,0.19,0.38,0.28,0.66,0.28
				c0.08,0.09,0.16,0.14,0.26,0.14c0.09,0,0.22,0.05,0.4,0.14h0.69c0.65,0,1.12-0.05,1.41-0.14c0.94-0.09,2.01-0.46,3.21-1.11
				c1-0.56,2.02-1.2,3.05-1.94l2.83-2.36l2.71-2.5c1.82-1.76,3.55-3.52,5.18-5.28c1.75-1.94,3.36-3.84,4.83-5.69
				c0.78-0.92,1.56-1.87,2.34-2.85c0.78-0.97,1.53-1.97,2.22-2.98c0.79-1.02,1.55-1.99,2.28-2.92c0.73-0.92,1.45-1.9,2.15-2.91
				l4.33-6.11l4.05-6.11l0.02-0.14c0.46-0.65,0.94-0.79,1.45-0.42c0.59,0.37,0.72,0.83,0.36,1.39l-2.11,3.19
				c-0.34,0.46-0.71,0.95-1.11,1.46c-0.4,0.51-0.77,1.04-1.13,1.6l-4.31,5.97l-4.59,5.97c-0.79,1.02-1.55,1.99-2.28,2.92
				c-0.73,0.93-1.54,1.9-2.42,2.91c-1.46,1.85-3.07,3.75-4.83,5.69c-0.89,1.02-1.76,1.97-2.62,2.85c-0.87,0.88-1.73,1.78-2.6,2.71
				c-0.96,0.93-1.9,1.8-2.8,2.64c-0.9,0.83-1.92,1.62-3.04,2.36c-0.53,0.46-1.05,0.86-1.55,1.18c-0.51,0.33-1.02,0.67-1.53,1.04
				c-1.21,0.74-2.37,1.39-3.47,1.94l-2.06,0.83c-0.19,0-0.38,0.05-0.57,0.14h-0.56l-1.01,0.28h-0.97c-0.19,0-0.37,0.02-0.56,0.07
				c-0.19,0.05-0.37,0.02-0.55-0.07c-0.74,0-1.51-0.14-2.3-0.42c-0.45-0.09-0.84-0.26-1.18-0.49c-0.34-0.23-0.67-0.49-1-0.76
				c-0.58-0.46-1.13-1.16-1.65-2.08c-0.13-0.37-0.24-0.74-0.33-1.11c-0.09-0.37-0.19-0.79-0.31-1.25l-0.1-2.22
				c0.1-0.74,0.2-1.46,0.3-2.15c0.1-0.69,0.24-1.41,0.44-2.15c0.18-0.65,0.36-1.27,0.54-1.87c0.18-0.6,0.4-1.23,0.68-1.87l1.34-3.61
				l1.6-3.47c1.06-2.31,2.22-4.58,3.46-6.8c1.24-2.22,2.51-4.4,3.83-6.53l7.61-12.63l3.79-6.25l1.68-3.05l1.56-3.19l1.38-2.92
				l0.47-1.39c0.13-0.28,0.24-0.69,0.31-1.25l0.12-0.83c0.03-0.18,0-0.32-0.08-0.42c-0.24-0.28-0.5-0.42-0.77-0.42l-0.26-0.14h-1.11
				c-0.28,0-0.54,0.02-0.77,0.07c-0.24,0.05-0.5,0.07-0.77,0.07l-1.47,0.55c-0.98,0.37-2.02,0.88-3.13,1.53l-3.07,2.08l-2.81,2.22
				c-1.8,1.57-3.56,3.29-5.3,5.14c-1.74,1.85-3.44,3.7-5.08,5.55c-1.56,1.85-3.1,3.75-4.62,5.69c-1.52,1.94-3.07,3.89-4.64,5.83
				l-8.76,11.94c-1.41,2.13-2.81,4.19-4.2,6.18c-1.39,1.99-2.74,4.05-4.06,6.18l-4.07,6.25l-2.17,3.61
				c-0.29,0.74-0.63,1.51-1.02,2.29c-0.39,0.79-0.77,1.55-1.15,2.29l-0.02,0.14c-0.7,1.02-1.49,1.39-2.38,1.11
				c-0.44-0.19-0.74-0.46-0.92-0.83C776.05,1345.24,776.04,1344.83,776.19,1344.36z"/>
			<linearGradient id="SVGID_15_" gradientUnits="userSpaceOnUse" x1="881.3303" y1="1184.0959" x2="881.3303" y2="1465.6445">
				<stop  offset="5.618000e-03" style="stop-color:#FBC926"/>
				<stop  offset="0.2528" style="stop-color:#FFFBCC"/>
				<stop  offset="0.3045" style="stop-color:#F8F0BB"/>
				<stop  offset="0.4072" style="stop-color:#E7D28E"/>
				<stop  offset="0.55" style="stop-color:#CCA246"/>
				<stop  offset="0.5955" style="stop-color:#C3922E"/>
				<stop  offset="0.8708" style="stop-color:#EED688"/>
				<stop  offset="1" style="stop-color:#FFFBCC"/>
			</linearGradient>
			<path class="st14" d="M930.49,1181.93h-0.42c-0.09,0-0.19,0.05-0.3,0.14c-0.28,0-0.47,0.05-0.57,0.14l-1.17,0.42
				c-0.21,0.19-0.42,0.33-0.61,0.42c-0.2,0.09-0.4,0.19-0.59,0.28l-1.09,0.83l-1.94,1.94l-1.98,2.22c-0.57,0.74-1.12,1.53-1.65,2.36
				c-0.53,0.83-1.09,1.67-1.67,2.5l-1.6,2.5c-0.25,0.46-0.5,0.9-0.74,1.32c-0.25,0.42-0.49,0.86-0.74,1.32l-1.48,2.64l-1.34,2.64
				c-0.5,0.93-0.98,1.83-1.42,2.71c-0.45,0.88-0.88,1.78-1.28,2.71l-5.29,10.97l-4.91,11.24c-0.82,1.85-1.63,3.7-2.45,5.55
				c-0.82,1.85-1.59,3.7-2.31,5.55l-9.43,22.63c-1.55,3.8-3.15,7.57-4.78,11.32c-1.64,3.75-3.28,7.52-4.92,11.32
				c-1.74,3.8-3.49,7.54-5.26,11.24c-1.77,3.7-3.56,7.41-5.38,11.11l-3.02,5.69l4.55-6.66c1.65-2.5,3.36-4.97,5.14-7.43
				c1.78-2.45,3.62-4.88,5.54-7.29c0.46-0.65,0.92-1.25,1.36-1.8c0.45-0.56,0.95-1.16,1.5-1.8l2.99-3.47
				c1.08-1.11,2.16-2.22,3.25-3.33c1.08-1.11,2.2-2.17,3.36-3.19c0.62-0.46,1.24-0.92,1.86-1.39c0.62-0.46,1.24-0.92,1.86-1.39
				c0.71-0.46,1.39-0.88,2.05-1.25c0.65-0.37,1.38-0.74,2.17-1.11c0.49-0.18,0.9-0.32,1.24-0.42c0.34-0.09,0.7-0.18,1.08-0.28
				l1.29-0.28c0.46,0,0.84-0.05,1.13-0.14h1.39c0.18,0,0.39,0.02,0.62,0.07c0.22,0.05,0.48,0.07,0.75,0.07l1.31,0.55l1.13,0.83
				l0.94,1.25l0.66,1.25c0.32,1.02,0.47,1.94,0.44,2.78c0.2,1.85-0.05,3.61-0.74,5.28c-0.2,0.74-0.54,1.53-1.03,2.36l-0.57,1.11
				c-0.26,0.55-0.5,0.93-0.71,1.11c-0.25,0.46-0.49,0.86-0.72,1.18c-0.23,0.33-0.51,0.67-0.84,1.04l-1.52,1.94
				c-0.54,0.56-1.13,1.14-1.77,1.74c-0.64,0.6-1.27,1.13-1.89,1.6c-1.16,1.02-2.5,1.99-4.02,2.92c-1.43,0.93-2.84,1.74-4.23,2.43
				c-1.39,0.69-2.83,1.37-4.31,2.01l-2.2,0.83c-0.48,0.09-1.2,0.32-2.18,0.69l-2,0.42c0.54,0.09,1.1,0.23,1.68,0.42
				c0.57,0.19,1.13,0.37,1.66,0.56c1.41,0.46,2.53,1.11,3.34,1.94l0.5,0.42h0.14l-0.02,0.14c0.09,0,0.13,0.05,0.12,0.14h0.14
				l0.72,0.83l0.56,0.97l0.56,0.97c0.13,0.37,0.25,0.72,0.34,1.04c0.09,0.33,0.15,0.72,0.18,1.18c0.13,0.37,0.19,0.74,0.19,1.11
				c-0.01,0.37,0,0.79,0.03,1.25l-0.31,2.22l-0.59,2.22c-0.29,0.74-0.55,1.41-0.77,2.01c-0.22,0.6-0.47,1.23-0.75,1.87l-1.74,3.47
				l-1.7,3.19c-0.25,0.46-0.5,0.95-0.76,1.46c-0.26,0.51-0.51,1-0.76,1.46c-0.21,0.19-0.33,0.37-0.36,0.56
				c-0.03,0.19-0.1,0.37-0.22,0.56l-0.43,1.11l-0.18,1.25c-0.04,0.28-0.03,0.55,0.02,0.83l0.36,0.42l-0.02,0.14l0.12,0.14
				l-0.02,0.14c0.08,0.09,0.13,0.19,0.17,0.28c0.03,0.09,0.13,0.19,0.31,0.28l0.52,0.28h0.56c0.26,0.09,0.73,0.05,1.41-0.14
				c0.28,0,0.54-0.05,0.78-0.14c0.24-0.09,0.51-0.18,0.8-0.28l1.51-0.83l1.52-0.97c1.03-0.74,2.02-1.5,2.96-2.29
				c0.94-0.79,1.84-1.6,2.7-2.43c1.94-1.94,3.59-3.79,4.95-5.55c1.75-1.94,3.36-3.84,4.83-5.69c1.57-1.94,3.11-3.89,4.64-5.83
				c1.52-1.94,3.03-3.93,4.52-5.97c0.79-1.02,1.54-2.04,2.23-3.05c0.7-1.02,1.4-2.04,2.09-3.05c0.7-1.02,1.42-2.04,2.17-3.05
				c0.74-1.02,1.42-2.04,2.03-3.05c0.47-0.74,1.05-0.92,1.74-0.56c0.69,0.37,0.79,0.93,0.32,1.67c-0.7,1.02-1.4,2.06-2.1,3.12
				c-0.71,1.07-1.46,2.11-2.24,3.12l-4.33,6.11c-2.98,4.07-6.05,8.1-9.19,12.08c-1.57,1.94-3.2,3.84-4.9,5.69
				c-1.7,1.85-3.46,3.7-5.29,5.55c-0.86,0.83-1.76,1.69-2.72,2.57c-0.96,0.88-1.96,1.74-3,2.57l-1.56,1.25l-1.56,1.25l-1.82,1.11
				c-0.41,0.28-1.1,0.6-2.08,0.97l-1.17,0.42c-0.19,0-0.3,0.02-0.36,0.07c-0.05,0.05-0.17,0.07-0.36,0.07
				c-0.09,0-0.19,0.02-0.29,0.07c-0.1,0.05-0.2,0.07-0.29,0.07c-0.46,0-0.93,0-1.39,0c-0.46,0-0.91-0.09-1.35-0.28
				c-0.09,0-0.16-0.02-0.2-0.07c-0.04-0.05-0.11-0.07-0.2-0.07h-0.14l-0.26-0.14l-0.26-0.14l-0.26-0.14l-1.03-0.55
				c-0.34-0.19-0.66-0.44-0.93-0.76c-0.28-0.33-0.58-0.67-0.89-1.04c-0.21-0.46-0.41-0.9-0.58-1.32c-0.17-0.42-0.32-0.85-0.44-1.32
				c-0.25-0.83-0.31-1.76-0.17-2.78c0.17-1.2,0.33-2.04,0.49-2.5l0.73-2.22c0.29-0.74,0.59-1.41,0.91-2.01
				c0.31-0.6,0.6-1.18,0.87-1.74c0.28-0.65,0.59-1.23,0.94-1.74c0.35-0.51,0.65-1.04,0.92-1.6c0.34-0.46,0.67-0.97,0.98-1.53
				c0.31-0.55,0.59-1.06,0.84-1.53c0.25-0.46,0.5-0.92,0.75-1.39c0.25-0.46,0.5-0.92,0.75-1.39c0.21-0.18,0.33-0.39,0.37-0.63
				c0.03-0.23,0.11-0.44,0.23-0.62c0.26-0.56,0.41-0.97,0.45-1.25c0.16-0.46,0.26-0.85,0.3-1.18c0.05-0.32,0.1-0.72,0.17-1.18
				l0.08-0.56c-0.08-0.09-0.1-0.28-0.06-0.55c-0.07-0.19-0.09-0.32-0.08-0.42c0.01-0.09-0.02-0.18-0.1-0.28l0.04-0.28h-0.14
				c0.03-0.19,0-0.32-0.08-0.42c-0.13-0.37-0.31-0.74-0.54-1.11c-0.23-0.37-0.54-0.74-0.95-1.11l-2.54-1.67
				c-0.87-0.37-1.89-0.69-3.06-0.97l-2.58-0.42c-0.75,0.09-1.48,0.14-2.17,0.14s-1.41,0-2.15,0h-0.14l-0.89,1.39l-5.08,7.5
				l-2.61,3.75l-2.59,3.61c-1.86,2.69-3.73,5.14-5.62,7.36l-2.85,3.47c-0.32,0.28-0.61,0.58-0.89,0.9c-0.28,0.33-0.53,0.62-0.75,0.9
				l-0.81,0.83l-0.47,0.42c-0.01,0.09-0.12,0.23-0.34,0.42l-0.47,0.42l-2.4,2.22c-1.9,1.67-3.84,2.96-5.82,3.89
				c-0.59,0.28-1.15,0.49-1.68,0.63c-0.53,0.14-1.08,0.3-1.66,0.49c-1.41,0.18-2.56,0.14-3.45-0.14c-0.18,0-0.25-0.19-0.2-0.56
				c0.01-0.09,0.04-0.14,0.09-0.14c0.05,0,0.08-0.05,0.09-0.14h0.14c0.91-0.56,1.74-1.16,2.47-1.8c0.41-0.28,0.78-0.58,1.1-0.9
				c0.32-0.32,0.65-0.67,0.98-1.04c0.65-0.65,1.27-1.32,1.88-2.01c0.61-0.69,1.24-1.41,1.9-2.15l1.7-2.22
				c0.34-0.46,0.68-0.85,1-1.18c0.32-0.32,0.61-0.72,0.86-1.18c0.57-0.74,1.12-1.53,1.65-2.36c0.53-0.83,1.09-1.67,1.67-2.5
				c2.15-3.42,4.16-6.89,6.05-10.41c1-1.85,1.95-3.68,2.85-5.48c0.9-1.81,1.81-3.63,2.71-5.48l5.15-10.97l2.45-5.55l2.45-5.55
				l9.69-22.49c1.64-3.79,3.26-7.54,4.84-11.24c1.58-3.7,3.24-7.45,4.98-11.25c3.29-7.59,6.7-15.09,10.24-22.49
				c1-1.85,1.95-3.7,2.86-5.55c0.91-1.85,1.86-3.7,2.86-5.55l3.28-5.55l1.62-2.64l1.78-2.78c0.25-0.46,0.54-0.9,0.88-1.32
				c0.34-0.42,0.63-0.85,0.88-1.32l2.02-2.5c1.36-1.76,2.84-3.42,4.45-5c0.84-0.74,1.69-1.48,2.53-2.22
				c0.84-0.74,1.82-1.43,2.93-2.08l1.51-0.83l1.74-0.55c0.77-0.19,1.33-0.28,1.71-0.28c0.2-0.09,0.48-0.14,0.85-0.14h0.42l0.26,0.14
				h0.14c0.74,0,1.05,0.42,0.93,1.25C931.36,1181.37,930.98,1181.75,930.49,1181.93z M878.34,1306.05c2.68-0.65,5.28-1.71,7.81-3.19
				l3.54-2.5c1.05-0.92,2.08-1.94,3.07-3.05l2.79-3.06l2.55-3.33l1.34-1.67l1.05-1.53l0.93-1.67c0.21-0.18,0.36-0.42,0.44-0.69
				c0.08-0.28,0.24-0.56,0.46-0.83l0.79-1.67c0.1-0.09,0.16-0.18,0.18-0.28c0.01-0.09,0.08-0.23,0.2-0.42l0.39-0.83
				c0.13-0.28,0.24-0.74,0.33-1.39c0.13-0.28,0.14-0.69,0.04-1.25c-0.12-0.46-0.31-0.74-0.58-0.83c-0.35-0.19-0.56-0.28-0.66-0.28
				c-0.09,0-0.16-0.02-0.2-0.07c-0.04-0.05-0.11-0.07-0.2-0.07h-0.42c-0.17-0.09-0.33-0.11-0.48-0.07c-0.15,0.05-0.31,0.07-0.5,0.07
				h-0.97c-0.29,0.09-0.6,0.16-0.93,0.21c-0.33,0.05-0.65,0.16-0.95,0.35c-1.16,0.37-2.4,0.93-3.7,1.67
				c-0.71,0.46-1.35,0.88-1.91,1.25c-0.56,0.37-1.11,0.79-1.63,1.25c-2.19,1.76-4.34,3.84-6.43,6.25l-2.85,3.47l-2.73,3.61
				c-1.46,1.85-2.89,3.77-4.28,5.76c-1.39,1.99-2.78,3.96-4.16,5.9c1.3,0,2.55-0.07,3.78-0.21
				C875.69,1306.81,876.98,1306.51,878.34,1306.05z"/>
			<linearGradient id="SVGID_16_" gradientUnits="userSpaceOnUse" x1="909.6198" y1="1184.0959" x2="909.6198" y2="1465.6445">
				<stop  offset="5.618000e-03" style="stop-color:#FBC926"/>
				<stop  offset="0.2528" style="stop-color:#FFFBCC"/>
				<stop  offset="0.3045" style="stop-color:#F8F0BB"/>
				<stop  offset="0.4072" style="stop-color:#E7D28E"/>
				<stop  offset="0.55" style="stop-color:#CCA246"/>
				<stop  offset="0.5955" style="stop-color:#C3922E"/>
				<stop  offset="0.8708" style="stop-color:#EED688"/>
				<stop  offset="1" style="stop-color:#FFFBCC"/>
			</linearGradient>
			<path class="st15" d="M1004.49,1181.93c-1.49,0.09-2.91,0.44-4.24,1.04c-1.33,0.6-2.62,1.37-3.86,2.29
				c-0.62,0.46-1.24,0.95-1.87,1.46c-0.63,0.51-1.21,1.04-1.75,1.6c-0.54,0.56-1.09,1.14-1.63,1.74c-0.55,0.6-1.1,1.23-1.65,1.87
				c-1.89,2.22-3.78,4.81-5.67,7.77c-0.56,0.65-1.04,1.3-1.45,1.94c-0.42,0.65-0.86,1.34-1.33,2.08c-0.38,0.74-0.78,1.44-1.2,2.08
				c-0.42,0.65-0.86,1.34-1.33,2.08l-2.41,4.3c-0.72,1.2-1.53,2.64-2.41,4.3l-4.68,8.61c-0.29,0.74-0.63,1.48-1.01,2.22
				c-0.38,0.74-0.76,1.48-1.15,2.22l-2.27,4.3l-4.44,8.89c-1.44,2.96-2.87,5.92-4.3,8.88c-1.44,2.96-2.87,5.92-4.3,8.89l-4.16,8.88
				l-4.3,8.89l-3.1,6.25c-0.43,1.11-0.87,2.22-1.3,3.33c-0.43,1.11-0.83,2.27-1.18,3.47c-1.31,3.42-2.48,6.8-3.51,10.13
				c-0.53,1.76-1.02,3.47-1.49,5.14c-0.47,1.67-0.87,3.38-1.21,5.14c-0.21,0.83-0.4,1.69-0.57,2.57c-0.17,0.88-0.31,1.74-0.43,2.57
				c-0.03,0.83-0.05,1.67-0.07,2.5c-0.03,0.83,0,1.62,0.09,2.36c-0.03,0.83,0.15,1.53,0.54,2.08c0.19,0.65,0.59,1.06,1.21,1.25
				c-0.01,0.09,0.03,0.14,0.12,0.14h0.28h1.53c0.48-0.09,1.2-0.32,2.18-0.69c0.79-0.37,1.54-0.79,2.26-1.25
				c0.71-0.46,1.43-0.97,2.16-1.53c1.25-1.02,2.53-2.22,3.84-3.61c2.53-2.87,4.83-5.74,6.9-8.61c0.47-0.74,0.95-1.5,1.43-2.29
				c0.48-0.79,1-1.55,1.57-2.29l1.3-2.36l0.71-1.11l0.73-1.25c0.5-0.92,1.13-1.16,1.9-0.69c0.7,0.28,0.85,0.88,0.44,1.81
				c-0.26,0.55-0.51,0.97-0.73,1.25l-0.71,1.11c-0.38,0.74-0.86,1.53-1.44,2.36c-0.58,0.83-1.11,1.64-1.59,2.43
				c-0.48,0.79-1.01,1.55-1.57,2.29c-1.05,1.57-2.17,3.1-3.35,4.58c-1.18,1.48-2.42,2.91-3.73,4.3c-1.42,1.57-2.86,2.92-4.31,4.03
				c-0.82,0.56-1.63,1.09-2.45,1.6c-0.81,0.51-1.67,1-2.57,1.46c-1.08,0.46-2.1,0.74-3.03,0.83c-0.19,0-0.42,0.02-0.7,0.07
				c-0.28,0.05-0.56,0.02-0.82-0.07h-0.83l-0.79-0.28c-0.52-0.28-0.94-0.6-1.25-0.97c-0.35-0.18-0.66-0.6-0.94-1.25
				c-0.36-0.74-0.55-1.67-0.58-2.78c-0.12-0.46-0.17-0.9-0.16-1.32c0.01-0.42,0-0.85-0.02-1.32c0.06-0.46,0.11-0.92,0.13-1.39
				c0.02-0.46,0.06-0.92,0.13-1.39c0.13-0.92,0.28-1.83,0.45-2.71c0.17-0.88,0.36-1.74,0.57-2.57c0.44-1.85,0.9-3.63,1.38-5.35
				c0.47-1.71,0.97-3.45,1.49-5.21c0.04-0.28,0.19-0.69,0.45-1.25c-1.26,2.41-2.48,4.77-3.63,7.08c-1.16,2.31-2.36,4.63-3.61,6.94
				c-3.04,5.83-6.22,11.66-9.54,17.49c-0.85,1.48-1.68,2.94-2.49,4.37c-0.8,1.44-1.68,2.89-2.63,4.37l-5.1,8.61
				c-1.79,2.87-3.6,5.71-5.43,8.54c-1.83,2.82-3.73,5.62-5.69,8.4c-1.96,2.78-3.97,5.51-6.01,8.19c-2.04,2.68-4.17,5.32-6.39,7.91
				c-2.23,2.68-4.51,5.25-6.84,7.71c-2.33,2.45-4.78,4.88-7.34,7.29c-1.19,1.2-2.44,2.36-3.75,3.47c-1.31,1.11-2.65,2.22-4.01,3.33
				c-1.35,1.02-2.72,2.04-4.11,3.05c-1.39,1.02-2.8,1.99-4.23,2.92c-1.44,1.02-2.89,1.94-4.35,2.78c-1.46,0.83-2.93,1.62-4.43,2.36
				c-1.58,0.74-3.14,1.46-4.68,2.15c-1.53,0.7-3.08,1.32-4.64,1.87c-0.77,0.18-1.56,0.42-2.39,0.69c-0.82,0.28-1.67,0.51-2.53,0.69
				l-4.72,0.97c-0.86,0.19-1.68,0.3-2.48,0.35c-0.79,0.05-1.61,0.11-2.46,0.21c-0.75,0.09-1.55,0.14-2.38,0.14s-1.62,0-2.36,0
				c-0.56,0-0.79-0.28-0.72-0.83c0.08-0.56,0.4-0.83,0.95-0.83c3.24,0,6.34-0.33,9.3-0.97c0.77-0.19,1.53-0.37,2.3-0.55
				c0.77-0.19,1.53-0.37,2.3-0.56c0.77-0.19,1.54-0.42,2.32-0.69c0.78-0.28,1.56-0.56,2.34-0.83c6.08-2.41,11.75-5.6,17.03-9.58
				c2.59-1.94,5.1-4.03,7.54-6.25c2.46-2.31,4.82-4.63,7.08-6.94c1.19-1.2,2.31-2.41,3.35-3.61c1.05-1.2,2.08-2.45,3.1-3.75
				l6.23-7.77c1.95-2.69,3.86-5.37,5.71-8.05c1.86-2.69,3.72-5.41,5.59-8.19c1.78-2.78,3.54-5.55,5.27-8.33
				c1.73-2.78,3.45-5.6,5.15-8.47c1.9-2.96,3.54-5.78,4.94-8.47c0.86-1.48,1.68-2.92,2.48-4.3c0.8-1.39,1.58-2.82,2.34-4.3
				c1.62-2.96,3.19-5.88,4.7-8.75c1.51-2.87,3.03-5.78,4.56-8.75c6.09-11.75,12.03-23.51,17.8-35.26
				c5.77-11.75,11.71-23.55,17.82-35.4l4.58-8.88l2.43-4.44l2.41-4.3c1.71-2.96,3.42-5.88,5.12-8.75c1.7-2.87,3.48-5.69,5.35-8.47
				l2.97-4.3l3.06-4.03c1.94-2.59,4.21-5.23,6.8-7.91l3.84-3.61c0.73-0.56,1.45-1.09,2.17-1.6c0.72-0.51,1.48-0.99,2.29-1.46
				c0.71-0.46,1.52-0.92,2.42-1.39l2.5-0.97c0.49-0.19,0.92-0.3,1.3-0.35c0.38-0.05,0.8-0.12,1.28-0.21h1.39
				c0.1-0.09,0.3-0.14,0.57-0.14c0.09,0,0.16,0.02,0.2,0.07c0.04,0.05,0.1,0.07,0.2,0.07h0.28c0.74,0,1.05,0.42,0.94,1.25
				C1005.68,1181.37,1005.25,1181.75,1004.49,1181.93z"/>
			<linearGradient id="SVGID_17_" gradientUnits="userSpaceOnUse" x1="982.8702" y1="1184.0959" x2="982.8702" y2="1465.6445">
				<stop  offset="5.618000e-03" style="stop-color:#FBC926"/>
				<stop  offset="0.2528" style="stop-color:#FFFBCC"/>
				<stop  offset="0.3045" style="stop-color:#F8F0BB"/>
				<stop  offset="0.4072" style="stop-color:#E7D28E"/>
				<stop  offset="0.55" style="stop-color:#CCA246"/>
				<stop  offset="0.5955" style="stop-color:#C3922E"/>
				<stop  offset="0.8708" style="stop-color:#EED688"/>
				<stop  offset="1" style="stop-color:#FFFBCC"/>
			</linearGradient>
			<path class="st16" d="M977.96,1278.83l-4.96,8.61l-2.41,4.3l-2.55,4.3c-1.62,2.96-3.23,5.85-4.83,8.68
				c-1.6,2.82-3.16,5.72-4.69,8.68l-2.15,4.44c-0.87,1.57-1.58,3.01-2.13,4.3l-2.01,4.44l-0.87,2.22l-0.87,2.22
				c-0.29,0.74-0.55,1.46-0.79,2.15c-0.24,0.69-0.45,1.41-0.65,2.15c-0.29,0.74-0.53,1.44-0.71,2.08c-0.18,0.65-0.32,1.3-0.41,1.94
				c-0.05,0.37-0.07,0.69-0.07,0.97c0.01,0.28,0,0.51-0.03,0.69c0.1,0.65,0.22,1.07,0.38,1.25l0.36,0.42
				c0.34,0.19,0.56,0.28,0.65,0.28c0.17,0.09,0.44,0.14,0.81,0.14h0.97c0.75-0.09,1.47-0.25,2.15-0.49c0.68-0.23,1.37-0.53,2.07-0.9
				c0.39-0.18,0.75-0.37,1.05-0.55c0.3-0.19,0.65-0.37,1.05-0.56l2-1.39c0.63-0.56,1.26-1.09,1.89-1.6
				c0.63-0.51,1.22-1.09,1.77-1.73c0.63-0.56,1.25-1.13,1.84-1.74c0.59-0.6,1.17-1.23,1.72-1.87c2.32-2.68,4.44-5.28,6.37-7.77
				c0.92-1.3,1.89-2.61,2.92-3.96c1.02-1.34,2-2.71,2.94-4.1l2.27-3.33l2.88-5.69c1.38-2.59,2.81-5.16,4.28-7.71
				c1.47-2.55,2.98-5.07,4.53-7.57c0.83-1.29,1.6-2.52,2.32-3.68c0.72-1.16,1.54-2.38,2.46-3.68c0.71-1.11,1.53-2.31,2.45-3.61
				c0.24-0.37,0.44-0.69,0.62-0.97c0.18-0.28,0.38-0.56,0.6-0.83l1.36-1.8c0.59-0.92,1.39-1.5,2.4-1.74c1-0.23,1.88-0.07,2.64,0.49
				c0.77,0.46,1.23,1.13,1.38,2.01c0.15,0.88-0.06,1.74-0.64,2.57l-4.51,7.36l-4.37,7.36c-1.54,2.41-3.02,4.84-4.43,7.29
				c-1.41,2.45-2.8,4.93-4.17,7.43c-0.74,1.3-1.45,2.55-2.12,3.75c-0.68,1.2-1.34,2.45-1.98,3.75c-0.65,1.3-1.26,2.55-1.85,3.75
				c-0.59,1.2-1.2,2.45-1.85,3.75c-0.28,0.65-0.53,1.27-0.75,1.87c-0.22,0.6-0.47,1.23-0.75,1.87c-0.28,0.65-0.53,1.27-0.75,1.87
				c-0.22,0.6-0.47,1.23-0.75,1.87c-0.65,1.3-1.09,2.5-1.34,3.61c-0.47,1.39-0.73,2.55-0.77,3.47c-0.17,1.2,0.02,2.13,0.58,2.78
				c0.21,0.46,0.59,0.74,1.13,0.83c0.34,0.19,0.89,0.28,1.63,0.28c0.36,0.09,0.88,0,1.57-0.28c0.38-0.09,0.97-0.32,1.76-0.69
				l1.82-1.11c0.21-0.18,0.36-0.3,0.46-0.35c0.1-0.05,0.21-0.16,0.33-0.35c0.2-0.09,0.51-0.32,0.93-0.69
				c1.13-0.83,2.21-1.76,3.24-2.78c1.02-1.02,2.03-2.08,3.02-3.19c0.98-1.02,1.94-2.08,2.88-3.19c0.94-1.11,1.86-2.22,2.76-3.33
				c1.88-2.22,3.73-4.46,5.53-6.73c1.8-2.27,3.6-4.56,5.41-6.87l5.16-7.08l4.88-7.08c0.46-0.65,1.04-0.83,1.74-0.56
				c0.58,0.46,0.64,1.02,0.18,1.67l-10.32,14.16c-0.91,1.2-1.82,2.38-2.72,3.54c-0.9,1.16-1.8,2.29-2.7,3.4l-5.54,6.8
				c-0.99,1.11-1.98,2.22-2.97,3.33c-0.99,1.11-2.02,2.17-3.09,3.19c-0.54,0.56-1.06,1.09-1.54,1.6c-0.49,0.51-1,1-1.52,1.46
				l-3.35,3.05c-0.62,0.46-1.22,0.93-1.79,1.39c-0.58,0.46-1.22,0.93-1.93,1.39c-0.71,0.46-1.41,0.83-2.1,1.11
				c-0.4,0.18-0.79,0.32-1.17,0.42c-0.38,0.09-0.81,0.19-1.29,0.28h-1.11l-1.21-0.28c-0.9-0.19-1.64-0.51-2.22-0.97
				c-0.44-0.18-0.77-0.44-1-0.76c-0.23-0.32-0.46-0.67-0.69-1.04c-0.39-0.56-0.7-1.3-0.94-2.22c-0.41-1.67-0.57-3.19-0.47-4.58
				c0.01-0.74,0.07-1.5,0.18-2.29c0.11-0.79,0.22-1.55,0.32-2.29c0.39-2.13,1.09-4.49,2.11-7.08l-1.01,1.25
				c-1.11,1.3-2.22,2.59-3.32,3.89c-1.11,1.3-2.26,2.59-3.46,3.89c-0.56,0.65-1.13,1.27-1.72,1.87c-0.6,0.6-1.21,1.18-1.84,1.74
				c-1.28,1.2-2.6,2.36-3.96,3.47c-1.16,1.02-2.61,2.08-4.34,3.19l-2.4,1.25c-0.49,0.19-0.93,0.35-1.32,0.49
				c-0.39,0.14-0.83,0.3-1.32,0.49c-0.37,0-0.85,0.09-1.43,0.28h-1.53c-0.37,0-0.91-0.09-1.63-0.28c-0.54-0.09-1.02-0.33-1.43-0.69
				l-1.21-1.25c-0.32-0.37-0.58-0.83-0.78-1.39c-0.36-0.74-0.6-1.67-0.72-2.78c-0.03-0.46-0.05-0.92-0.08-1.39
				c-0.03-0.46-0.01-0.92,0.06-1.39c-0.05-0.28-0.04-0.74,0.06-1.39l0.18-1.25c0.25-1.76,0.63-3.47,1.14-5.14l0.75-2.36l0.91-2.5
				c0.29-0.74,0.59-1.53,0.89-2.36c0.3-0.83,0.64-1.62,1.03-2.36c0.29-0.74,0.61-1.53,0.96-2.36c0.35-0.83,0.71-1.62,1.09-2.36
				c0.29-0.74,0.63-1.5,1.02-2.29c0.39-0.79,0.77-1.55,1.16-2.29c1.45-3.05,2.98-6.06,4.6-9.02c1.62-2.96,3.28-5.92,5-8.89l2.55-4.3
				l2.55-4.3c0.47-0.74,0.94-1.46,1.41-2.15c0.47-0.69,0.94-1.41,1.41-2.15l1.42-2.22c0.24-0.37,0.47-0.72,0.7-1.04
				c0.23-0.32,0.46-0.67,0.7-1.04c0.58-0.83,1.38-1.39,2.39-1.67c1.01-0.28,1.9-0.19,2.67,0.28c0.77,0.46,1.25,1.13,1.45,2.01
				c0.2,0.88,0.06,1.74-0.43,2.57H977.96z"/>
			<linearGradient id="SVGID_18_" gradientUnits="userSpaceOnUse" x1="1053.0862" y1="1184.0959" x2="1053.0862" y2="1465.6445">
				<stop  offset="5.618000e-03" style="stop-color:#FBC926"/>
				<stop  offset="0.2528" style="stop-color:#FFFBCC"/>
				<stop  offset="0.3045" style="stop-color:#F8F0BB"/>
				<stop  offset="0.4072" style="stop-color:#E7D28E"/>
				<stop  offset="0.55" style="stop-color:#CCA246"/>
				<stop  offset="0.5955" style="stop-color:#C3922E"/>
				<stop  offset="0.8708" style="stop-color:#EED688"/>
				<stop  offset="1" style="stop-color:#FFFBCC"/>
			</linearGradient>
			<path class="st17" d="M1020.63,1300.21l1.34-1.67l1.21-1.67l2.67-3.19l2.85-3.47c-0.99-0.83-1.83-1.8-2.51-2.91
				c-0.86-1.11-1.52-2.36-1.97-3.75c-0.55-1.39-0.86-2.78-0.94-4.17c-0.19-0.65-0.22-1.39-0.1-2.22c0.03-0.18,0.03-0.37,0.01-0.55
				c-0.02-0.19-0.02-0.37,0.01-0.56l0.31-2.22c0.08-0.56,0.18-0.92,0.3-1.11c0.08-0.55,0.27-1.3,0.59-2.22
				c0.5-1.57,1.12-3.01,1.85-4.3c0.47-0.74,0.94-1.41,1.39-2.01c0.45-0.6,0.96-1.23,1.51-1.87l1.76-1.67l0.95-0.83l1.07-0.69
				c1.62-1.02,3.2-1.71,4.73-2.08c0.48-0.09,0.9-0.16,1.28-0.21c0.38-0.05,0.8-0.07,1.26-0.07h0.69l0.12,0.14h0.42
				c0.18,0,0.36,0.02,0.55,0.07c0.18,0.05,0.36,0.07,0.55,0.07l2.14,0.56c0.61,0.28,1.24,0.69,1.91,1.25
				c0.57,0.55,1.03,1.25,1.37,2.08c0.26,0.74,0.34,1.53,0.22,2.36c0.03,0.46-0.01,0.86-0.1,1.18c-0.09,0.32-0.21,0.67-0.35,1.04
				c-0.12,0.83-0.35,1.53-0.71,2.08c-0.69,1.57-1.33,2.87-1.93,3.89l-2.31,3.61l-2.27,3.33l-5.1,6.66l-2.69,3.33l-0.49,0.56
				c0.66,0.55,1.16,0.93,1.51,1.11c1.93,1.39,4.07,2.31,6.41,2.78c0.63,0.09,1.23,0.16,1.78,0.21c0.55,0.05,1.15,0.07,1.8,0.07
				c1.29,0,2.52-0.14,3.67-0.42c2.68-0.65,5.01-1.76,6.99-3.33c0.92-0.65,1.92-1.48,2.99-2.5l0.83-0.97l2.49-3.89
				c0.59-0.92,1.37-1.55,2.35-1.87c0.97-0.32,1.89-0.25,2.75,0.21c0.77,0.46,1.25,1.11,1.46,1.94c0.21,0.83,0.11,1.67-0.28,2.5
				c-1.38,2.59-2.78,5.12-4.19,7.57c-1.41,2.45-2.8,4.93-4.17,7.43c-1.36,2.41-2.74,4.86-4.16,7.36c-1.42,2.5-2.8,4.95-4.16,7.36
				c-0.63,1.2-1.29,2.41-1.97,3.61c-0.68,1.2-1.34,2.45-1.98,3.75c-0.62,1.11-1.25,2.31-1.9,3.61l-1.78,3.75
				c-0.54,1.2-1.03,2.41-1.48,3.61c-0.45,1.2-0.84,2.36-1.18,3.47c-0.18,0.65-0.34,1.25-0.46,1.81c-0.13,0.55-0.22,1.06-0.28,1.53
				l0.1,1.25c-0.04,0.28,0.01,0.6,0.14,0.97c0.15,0.28,0.35,0.51,0.6,0.69c0.5,0.37,0.89,0.6,1.15,0.69c0.18,0,0.32,0.02,0.41,0.07
				c0.08,0.05,0.22,0.07,0.41,0.07h0.42c0.08,0.09,0.21,0.14,0.4,0.14c0.74,0,1.3-0.05,1.69-0.14l1.72-0.42l1.76-0.69l3.49-2.08
				c2.17-1.57,4.32-3.42,6.47-5.55l1.46-1.53c0.22-0.28,0.44-0.53,0.66-0.76c0.22-0.23,0.44-0.49,0.66-0.76
				c0.54-0.56,1.03-1.11,1.48-1.67c0.45-0.56,0.9-1.11,1.34-1.67c3.55-4.16,6.96-8.7,10.24-13.61c0.91-1.2,1.72-2.38,2.44-3.54
				c0.72-1.16,1.48-2.34,2.3-3.54l1.09-1.8l1.23-1.81l2.03-3.61c0.59-0.92,1.28-1.2,2.06-0.83c0.44,0.19,0.7,0.46,0.78,0.83
				c0.09,0.37,0.01,0.74-0.23,1.11l-1.25,1.94l-1.09,1.8l-2.45,3.61c-0.82,1.2-1.61,2.38-2.37,3.54c-0.77,1.16-1.6,2.34-2.51,3.54
				c-1.42,2.22-3.09,4.54-5,6.94c-0.91,1.2-1.81,2.36-2.71,3.47c-0.9,1.11-1.84,2.22-2.83,3.33l-2.83,3.33l-3.09,3.19
				c-1.07,1.02-2.14,2.01-3.2,2.98c-1.06,0.97-2.17,1.97-3.33,2.99c-0.95,0.83-2.18,1.71-3.7,2.64c-0.71,0.46-1.41,0.83-2.1,1.11
				c-0.52,0.37-1.26,0.69-2.22,0.97c-0.58,0.18-1.35,0.37-2.3,0.55c-0.37,0-0.61,0.05-0.71,0.14h-1.8c-0.83,0-1.69-0.14-2.58-0.42
				c-0.44-0.19-0.85-0.39-1.23-0.62c-0.38-0.23-0.74-0.53-1.05-0.9c-0.41-0.37-0.73-0.74-0.95-1.11c-0.23-0.37-0.44-0.79-0.66-1.25
				c-0.12-0.46-0.22-0.9-0.3-1.32c-0.08-0.42-0.18-0.85-0.3-1.32c-0.14-1.67-0.06-3.24,0.25-4.72c0.22-1.57,0.57-3.05,1.04-4.44
				c0.29-0.74,0.55-1.46,0.79-2.15c0.24-0.69,0.5-1.41,0.79-2.15c1.12-2.68,2.3-5.32,3.54-7.91c1.24-2.59,2.55-5.18,3.94-7.77
				c1.37-2.5,2.74-5,4.11-7.5c1.37-2.5,2.78-4.95,4.23-7.36c0.47-0.74,0.93-1.53,1.37-2.36c0.44-0.83,0.94-1.62,1.51-2.36
				c-2.34,1.48-4.64,2.41-6.92,2.78c-2.79,0.74-5.54,0.88-8.25,0.42c-2.71-0.46-5.18-1.34-7.4-2.64c-0.7-0.28-1.26-0.6-1.67-0.97
				c-0.54,0.56-1.02,1.14-1.42,1.74c-0.41,0.6-0.84,1.18-1.29,1.74c-0.45,0.55-0.87,1.09-1.27,1.6c-0.4,0.51-0.77,1.04-1.13,1.6
				c-0.33,0.37-0.73,0.93-1.21,1.67l-1.09,1.8c-0.49,0.83-1.12,1.07-1.9,0.7c-0.34-0.19-0.56-0.46-0.65-0.83
				c-0.09-0.37-0.01-0.74,0.23-1.11L1020.63,1300.21z M1031.21,1287.16l2.53-3.19l2.55-3.33l2.41-3.33l2.27-3.33l2.01-3.47
				c0.64-1.3,1.18-2.45,1.6-3.47c0.47-1.39,0.73-2.54,0.77-3.47c0.08-0.56,0-0.97-0.24-1.25l-0.7-0.97l-1.33-0.42
				c-0.27-0.09-0.77-0.14-1.51-0.14h-1.11l-0.16,0.14h-0.28c-0.2,0.09-0.42,0.16-0.65,0.21c-0.24,0.05-0.46,0.16-0.67,0.35
				c-1.11,0.65-1.95,1.34-2.51,2.08c-0.29,0.09-0.5,0.28-0.63,0.55l-0.49,0.56l-1.03,1.39c-0.69,0.93-1.31,1.9-1.87,2.92
				c-0.56,1.02-1.1,2.04-1.61,3.05l-0.65,1.67c-0.03,0.19-0.07,0.33-0.13,0.42c-0.06,0.09-0.1,0.23-0.13,0.42l-0.2,0.42l-0.06,0.42
				c-0.11,0.09-0.17,0.23-0.2,0.42l-0.06,0.42c-0.03,0.19-0.07,0.33-0.13,0.42c-0.06,0.09-0.1,0.23-0.13,0.42l-0.21,1.53
				c-0.15,2.41,0.15,4.53,0.91,6.39c0.12,0.46,0.32,0.88,0.59,1.25c0.27,0.37,0.51,0.79,0.73,1.25L1031.21,1287.16z"/>
			<linearGradient id="SVGID_19_" gradientUnits="userSpaceOnUse" x1="1114.0386" y1="1184.0959" x2="1114.0386" y2="1465.6445">
				<stop  offset="5.618000e-03" style="stop-color:#FBC926"/>
				<stop  offset="0.2528" style="stop-color:#FFFBCC"/>
				<stop  offset="0.3045" style="stop-color:#F8F0BB"/>
				<stop  offset="0.4072" style="stop-color:#E7D28E"/>
				<stop  offset="0.55" style="stop-color:#CCA246"/>
				<stop  offset="0.5955" style="stop-color:#C3922E"/>
				<stop  offset="0.8708" style="stop-color:#EED688"/>
				<stop  offset="1" style="stop-color:#FFFBCC"/>
			</linearGradient>
			<path class="st18" d="M1161.34,1232.46c0.78,0.37,1.54,0.74,2.27,1.11c0.73,0.37,1.44,0.79,2.12,1.25c0.67,0.46,1.32,1,1.93,1.6
				c0.61,0.6,1.14,1.27,1.59,2.01c0.92,1.39,1.52,3.01,1.82,4.86c0.16,0.83,0.2,1.71,0.12,2.64c-0.08,0.93-0.24,1.85-0.46,2.78
				c-0.52,1.76-1.41,3.43-2.65,5c-1.02,1.3-2.31,2.59-3.88,3.89c-0.82,0.56-1.6,1.02-2.35,1.39c-0.75,0.37-1.52,0.79-2.33,1.25
				c-0.79,0.37-1.6,0.67-2.42,0.9c-0.82,0.23-1.66,0.44-2.52,0.62c-0.77,0.19-1.55,0.33-2.35,0.42c-0.8,0.09-1.62,0.19-2.47,0.28
				c-0.83,0-1.64,0-2.43,0c-0.79,0-1.6,0.05-2.45,0.14c-1.55-0.19-3.07-0.39-4.56-0.63c-1.49-0.23-3-0.53-4.52-0.9
				c-3.04-0.74-5.92-1.71-8.61-2.91c-1.4-0.56-2.78-1.16-4.12-1.81c-1.35-0.65-2.61-1.34-3.8-2.08l-2.6-1.25l-2.43,4.44l-3.89,6.94
				c-2.5,4.63-5.02,9.21-7.55,13.74c-2.54,4.54-5.06,9.16-7.57,13.88c-1.25,2.31-2.48,4.61-3.67,6.87c-1.2,2.27-2.33,4.56-3.4,6.87
				c-1.17,2.41-2.29,4.74-3.35,7.01c-1.06,2.27-2.13,4.61-3.21,7.01l-2.64,6.94c-0.69,2.31-1.3,4.63-1.81,6.94
				c-0.08,0.56-0.18,1.09-0.29,1.6c-0.12,0.51-0.17,1.04-0.15,1.6c-0.07,0.46-0.13,0.93-0.2,1.39c-0.07,0.46-0.04,0.93,0.08,1.39
				c-0.04,0.93,0.18,1.71,0.64,2.36c0.23,0.37,0.56,0.6,1.01,0.69c0.34,0.19,0.78,0.37,1.31,0.56c0.09,0,0.18,0.02,0.27,0.07
				c0.08,0.05,0.22,0.07,0.41,0.07h0.69c0.28,0,0.53-0.02,0.77-0.07c0.24-0.05,0.5-0.11,0.79-0.21c0.87-0.28,1.92-0.79,3.13-1.53
				c0.5-0.28,1.03-0.6,1.59-0.97c0.56-0.37,1.1-0.79,1.63-1.25c0.51-0.37,0.99-0.76,1.42-1.18c0.43-0.42,0.91-0.86,1.43-1.32
				c0.96-0.92,1.9-1.85,2.82-2.78c0.91-0.92,1.82-1.9,2.7-2.91c0.53-0.46,0.99-0.95,1.39-1.46c0.39-0.51,0.81-0.99,1.25-1.46
				c0.87-0.92,1.75-1.94,2.65-3.05c1.67-2.04,3.35-4.07,5.02-6.11c1.67-2.04,3.31-4.12,4.9-6.25l4.65-6.39
				c0.79-1.02,1.56-2.08,2.32-3.19c0.76-1.11,1.49-2.22,2.2-3.33c0.57-0.74,1.24-0.92,2.02-0.55c0.67,0.46,0.77,1.11,0.28,1.94
				l-4.67,6.52c-0.79,1.02-1.57,2.08-2.32,3.19c-0.76,1.11-1.58,2.17-2.46,3.19c-1.6,2.13-3.21,4.23-4.84,6.32
				c-1.64,2.08-3.34,4.19-5.12,6.32c-1.77,2.04-3.55,4.05-5.36,6.04c-1.81,1.99-3.72,3.91-5.74,5.76l-3.15,2.64
				c-0.53,0.46-1.08,0.9-1.64,1.32c-0.57,0.42-1.11,0.81-1.62,1.18l-1.84,1.25l-1.94,0.97c-0.58,0.19-1.35,0.37-2.3,0.56
				c-0.09,0-0.19,0.05-0.3,0.14h-1.94c-0.56,0-1.28-0.09-2.18-0.28s-1.65-0.46-2.24-0.83c-0.69-0.37-1.3-0.92-1.85-1.67
				c-0.57-0.56-0.99-1.2-1.25-1.94l-0.42-0.97l-0.26-1.11c-0.25-0.83-0.38-1.57-0.38-2.22c-0.08-1.39-0.03-2.78,0.17-4.16
				c0.1-0.74,0.23-1.43,0.36-2.08c0.14-0.65,0.26-1.34,0.36-2.08l1.1-3.89c0.37-1.3,0.78-2.57,1.23-3.82
				c0.45-1.25,0.91-2.52,1.37-3.82c2-5,4.12-9.88,6.36-14.65c2.24-4.77,4.58-9.51,7-14.23c2.42-4.72,4.9-9.37,7.44-13.95
				c2.54-4.58,5.11-9.18,7.7-13.81l3.89-6.94l2.57-4.44c-1.14-0.46-2.24-0.88-3.29-1.25c-1.06-0.37-2.17-0.74-3.31-1.11
				c-1.42-0.46-2.84-0.88-4.27-1.25c-1.43-0.37-2.87-0.65-4.32-0.83c-1.55-0.18-3.08-0.35-4.58-0.49c-1.51-0.14-3-0.21-4.48-0.21
				c-1.59,0.09-3.13,0.23-4.64,0.42c-1.51,0.19-3.03,0.51-4.58,0.97c-0.77,0.19-1.51,0.39-2.24,0.62c-0.73,0.23-1.49,0.53-2.28,0.9
				c-0.7,0.37-1.38,0.74-2.03,1.11c-0.65,0.37-1.34,0.79-2.05,1.25c-0.62,0.46-1.2,0.97-1.74,1.53c-0.72,0.55-1.31,1.11-1.76,1.67
				c-0.53,0.46-0.98,1.06-1.36,1.8c-0.22,0.28-0.43,0.56-0.6,0.83c-0.18,0.28-0.39,0.65-0.64,1.11c-0.49,1.48-0.77,2.82-0.84,4.03
				c-0.14,1.02,0.11,2.18,0.76,3.47c0.4,0.46,0.49,0.97,0.27,1.53c-0.22,0.56-0.58,1.02-1.1,1.39c-0.53,0.46-1.09,0.65-1.68,0.56
				c-0.59-0.09-1.03-0.42-1.32-0.97c-0.18,0-0.26-0.14-0.22-0.42l0.02-0.14c-0.35-0.83-0.5-1.71-0.46-2.64
				c0.04-0.92,0.13-1.9,0.27-2.91c0.21-0.83,0.49-1.69,0.85-2.57c0.36-0.88,0.77-1.69,1.24-2.43l1.56-2.22
				c0.46-0.65,1.06-1.3,1.8-1.94l1.92-1.8l2.14-1.39c3.24-1.94,6.33-3.24,9.29-3.89c3.17-0.83,6.38-1.25,9.62-1.25
				c1.57,0,3.11,0.07,4.62,0.21c1.51,0.14,3.03,0.3,4.58,0.49c1.53,0.28,3.04,0.58,4.52,0.9c1.48,0.33,2.93,0.72,4.35,1.18
				c1.24,0.37,2.42,0.74,3.52,1.11c1.1,0.37,2.23,0.79,3.36,1.25l0.55-0.97l15.53-27.49c1.24-2.22,2.48-4.46,3.72-6.73
				c1.24-2.27,2.45-4.56,3.6-6.87l1.74-3.47l1.74-3.47l2.92-6.94c0.26-0.55,0.48-1.13,0.66-1.74c0.18-0.6,0.35-1.18,0.52-1.74
				c0.17-0.56,0.32-1.11,0.44-1.67c0.12-0.56,0.18-1.11,0.16-1.67c0.14-1.02,0.03-1.9-0.32-2.64c-0.13-0.37-0.38-0.6-0.74-0.69
				l-0.52-0.28h-0.42l-0.12-0.14h-0.28c-0.74,0-1.05-0.46-0.92-1.39c0.26-0.56,0.69-0.92,1.27-1.11h1.11c0.28,0,0.68,0.09,1.21,0.28
				c0.9,0.19,1.58,0.6,2.05,1.25c0.58,0.46,0.95,1.16,1.1,2.08c0.13,0.37,0.22,0.72,0.27,1.04c0.05,0.33,0.09,0.67,0.13,1.04
				c0.13,0.37,0.18,0.72,0.13,1.04c-0.05,0.33-0.05,0.67-0.01,1.04l-0.29,2.08c-0.1,0.74-0.2,1.41-0.28,2.01
				c-0.08,0.6-0.27,1.27-0.56,2.01c-0.66,2.69-1.43,5.23-2.32,7.64l-1.34,3.61l-1.64,3.75c-1.08,2.41-2.16,4.79-3.23,7.15
				c-1.07,2.36-2.24,4.74-3.5,7.15c-1.17,2.41-2.36,4.77-3.56,7.08c-1.21,2.31-2.44,4.67-3.7,7.08l-7.64,13.88l-0.55,0.97l2.74,1.25
				c1.19,0.74,2.46,1.39,3.82,1.94c1.36,0.55,2.74,1.11,4.14,1.67c2.71,1.11,5.51,1.94,8.4,2.5c3.13,0.74,6.09,1.11,8.87,1.11
				c0.73,0.09,1.46,0.12,2.21,0.07c0.75-0.05,1.5-0.12,2.25-0.21c1.6-0.18,3.12-0.46,4.56-0.83c0.77-0.19,1.49-0.37,2.16-0.56
				c0.67-0.19,1.36-0.46,2.06-0.83c1.68-0.74,2.95-1.57,3.82-2.5c1.04-0.83,2.07-1.9,3.09-3.19c0.37-0.65,0.71-1.25,1.02-1.8
				c0.31-0.56,0.52-1.2,0.62-1.94c0.17-0.55,0.21-1.2,0.13-1.94c0.09-0.65,0.04-1.25-0.16-1.8c-0.28-1.3-0.83-2.36-1.63-3.19
				c-0.7-0.92-1.61-1.71-2.72-2.36c-0.68-0.46-1.24-0.74-1.69-0.83l-2.14-0.56c-0.62-0.18-1.08-0.58-1.36-1.18
				c-0.29-0.6-0.29-1.27,0.01-2.01c0.29-0.74,0.76-1.32,1.42-1.74c0.66-0.42,1.35-0.53,2.06-0.35c0.09,0,0.14,0.02,0.13,0.07
				C1161.21,1232.44,1161.25,1232.46,1161.34,1232.46z"/>
		</g>
	</g>
</g>
</svg>
